<mxfile host="app.diagrams.net" agent="Mozilla/5.0 (Macintosh; Intel Mac OS X 10_15_7) AppleWebKit/537.36 (KHTML, like Gecko) Chrome/133.0.0.0 Safari/537.36" version="26.0.16">
  <diagram name="Page-1" id="9DZwixzUk7h8iILx_hxP">
    <mxGraphModel dx="1562" dy="923" grid="1" gridSize="10" guides="1" tooltips="1" connect="1" arrows="1" fold="1" page="1" pageScale="1" pageWidth="850" pageHeight="1100" math="0" shadow="0">
      <root>
        <mxCell id="0" />
        <mxCell id="1" parent="0" />
        <mxCell id="sdSFOSKggI8gM6giwSen-277" value="" style="container=1;collapsible=0;expand=0;recursiveResize=0;html=1;whiteSpace=wrap;strokeColor=light-dark(#326de5, #55ae70);fillColor=none;strokeWidth=1" vertex="1" parent="1">
          <mxGeometry x="20" y="10" width="700" height="870" as="geometry" />
        </mxCell>
        <mxCell id="sdSFOSKggI8gM6giwSen-278" value="Minikube Cluster" style="shape=rect;fillColor=none;aspect=fixed;resizable=0;labelPosition=right;verticalLabelPosition=middle;align=left;verticalAlign=middle;strokeColor=none;part=1;spacingLeft=5;fontSize=14;" vertex="1" parent="sdSFOSKggI8gM6giwSen-277">
          <mxGeometry width="48" height="48" relative="1" as="geometry" />
        </mxCell>
        <mxCell id="sdSFOSKggI8gM6giwSen-279" value="" style="fillColor=#198038;shape=mxgraph.ibm_cloud.ibm-cloud--kubernetes-service;strokeColor=none;dashed=0;outlineConnect=0;html=1;labelPosition=center;verticalLabelPosition=bottom;verticalAlign=top;part=1;movable=0;resizable=0;rotatable=0;" vertex="1" parent="sdSFOSKggI8gM6giwSen-278">
          <mxGeometry width="24" height="24" relative="1" as="geometry">
            <mxPoint x="12" y="12" as="offset" />
          </mxGeometry>
        </mxCell>
        <mxCell id="sdSFOSKggI8gM6giwSen-280" value="" style="shape=rect;fillColor=light-dark(#326de5, #55ae70);aspect=fixed;resizable=0;labelPosition=right;verticalLabelPosition=middle;align=left;verticalAlign=middle;strokeColor=none;part=1;spacingLeft=5;fontSize=14;" vertex="1" parent="sdSFOSKggI8gM6giwSen-277">
          <mxGeometry width="4" height="48" relative="1" as="geometry" />
        </mxCell>
        <mxCell id="sdSFOSKggI8gM6giwSen-281" value="" style="sketch=0;html=1;verticalAlign=top;labelPosition=center;verticalLabelPosition=bottom;align=center;spacingTop=-6;fontSize=11;fontStyle=1;fontColor=#999999;shape=image;aspect=fixed;imageAspect=0;image=data:image/svg+xml,PHN2ZyB4bWxucz0iaHR0cDovL3d3dy53My5vcmcvMjAwMC9zdmciIHhtbG5zOnY9Imh0dHBzOi8vdmVjdGEuaW8vbmFubyIgd2lkdGg9IjcwMi44NDYzMTM0NzY1NjI1IiBoZWlnaHQ9IjY4MS45NjcxMDIwNTA3ODEyIiB2aWV3Qm94PSIxMC4wMDEwMjYxNTM1NjQ0NTMgMTAuMDAwOTMzNjQ3MTU1NzYyIDcwMi44NDYzMTM0NzY1NjI1IDY4MS45NjcxMDIwNTA3ODEyIj4mI3hhOwk8c3R5bGUgdHlwZT0idGV4dC9jc3MiPiYjeGE7CS5zdDB7ZmlsbDojMzI2Y2U1O30mI3hhOwkuc3Qxe2ZpbGw6I2ZmZjt9JiN4YTsJPC9zdHlsZT4mI3hhOwk8cGF0aCBjbGFzcz0ic3QwIiBkPSJNMzU4Ljk4NyAxMC4wNmMtNi4yMTMuMzEzLTEyLjMwMSAxLjg1NC0xNy45MDYgNC41MzFMOTYuNzM3IDEzMS4zNDJjLTEyLjgxMSA2LjExOC0yMi4xMTYgMTcuNjg5LTI1LjI4MSAzMS40MzhsLTYwLjI4MSAyNjIuMjVjLTIuODEyIDEyLjIwNy0uNTI0IDI1LjAyNCA2LjM0NCAzNS41MzFhNDYuMzUgNDYuMzUgMCAwIDAgMi42NTYgMy42ODhsMTY5LjEyNSAyMTAuMjgxYzguODY4IDExLjAyMiAyMi4zMTMgMTcuNDQgMzYuNTMxIDE3LjQzOGwyNzEuMjE5LS4wNjJjMTQuMjEyLjAxIDI3LjY1Ny02LjM5NiAzNi41MzEtMTcuNDA2bDE2OS4wNjMtMjEwLjMxM2M4Ljg3My0xMS4wMjggMTIuMTk3LTI1LjQ2NCA5LjAzMS0zOS4yMTlsLTYwLjM3NS0yNjIuMjVjLTMuMTY1LTEzLjc0OC0xMi40Ny0yNS4zMTktMjUuMjgxLTMxLjQzN0wzODEuNjQzIDE0LjU5MmMtNy4wNS0zLjM2OC0xNC44NDEtNC45MjYtMjIuNjU2LTQuNTMxeiIvPiYjeGE7CTxwYXRoIGNsYXNzPSJzdDEgc3QyIiBkPSJNMzYxLjQwOCA5OS4zMDhjLTguMDc3LjAwMS0xNC42MjYgNy4yNzYtMTQuNjI1IDE2LjI1IDAgLjEzOC4wMjguMjY5LjAzMS40MDYtLjAxMiAxLjIxOS0uMDcxIDIuNjg4LS4wMzEgMy43NS4xOTMgNS4xNzYgMS4zMjEgOS4xMzcgMiAxMy45MDYgMS4yMyAxMC4yMDcgMi4yNjEgMTguNjY3IDEuNjI1IDI2LjUzMS0uNjE5IDIuOTY1LTIuODAzIDUuNjc3LTQuNzUgNy41NjNsLS4zNDQgNi4xODhjLTguNzc3LjcyNy0xNy42MTIgMi4wNTktMjYuNDM3IDQuMDYzLTM3Ljk3NSA4LjYyMi03MC42NyAyOC4xODMtOTUuNTYyIDU0LjU5NC0xLjYxNS0xLjEwMi00LjQ0MS0zLjEyOS01LjI4MS0zLjc1LTIuNjExLjM1My01LjI1IDEuMTU4LTguNjg3LS44NDQtNi41NDUtNC40MDYtMTIuNTA2LTEwLjQ4Ny0xOS43MTktMTcuODEyLTMuMzA1LTMuNTA0LTUuNjk4LTYuODQxLTkuNjI1LTEwLjIxOS0uODkyLS43NjctMi4yNTMtMS44MDUtMy4yNS0yLjU5NC0zLjA3LTIuNDQ4LTYuNjkxLTMuNzI0LTEwLjE4Ny0zLjg0NC00LjQ5Ni0uMTU0LTguODI0IDEuNjA0LTExLjY1NiA1LjE1Ni01LjAzNSA2LjMxNS0zLjQyMyAxNS45NjggMy41OTQgMjEuNTYzLjA3MS4wNTcuMTQ3LjEwMS4yMTkuMTU2Ljk2NC43ODIgMi4xNDUgMS43ODMgMy4wMzEgMi40MzggNC4xNjcgMy4wNzcgNy45NzMgNC42NTEgMTIuMTI1IDcuMDk0IDguNzQ3IDUuNDAyIDE1Ljk5OCA5Ljg4MSAyMS43NSAxNS4yODEgMi4yNDYgMi4zOTQgMi42MzkgNi42MTMgMi45MzggOC40MzhsNC42ODggNC4xODhjLTI1LjA5MyAzNy43NjQtMzYuNzA3IDg0LjQwOS0yOS44NDQgMTMxLjkzOGwtNi4xMjUgMS43ODFjLTEuNjE0IDIuMDg1LTMuODk1IDUuMzY1LTYuMjgxIDYuMzQ0LTcuNTI1IDIuMzctMTUuOTk0IDMuMjQxLTI2LjIxOSA0LjMxMy00LjguMzk5LTguOTQyLjE2MS0xNC4wMzEgMS4xMjUtMS4xMi4yMTItMi42ODEuNjE5LTMuOTA2LjkwNi0uMDQzLjAwOS0uMDgyLjAyMi0uMTI1LjAzMS0uMDY3LjAxNS0uMTU1LjA0OC0uMjE5LjA2My04LjYyIDIuMDgzLTE0LjE1OCAxMC4wMDYtMTIuMzc1IDE3LjgxM3MxMC4yMDMgMTIuNTU3IDE4Ljg3NSAxMC42ODhjLjA2My0uMDE0LjE1NC0uMDE3LjIxOS0uMDMxLjA5OC0uMDIyLjE4NC0uMDcuMjgxLS4wOTQgMS4yMDktLjI2NSAyLjcyNC0uNTYxIDMuNzgxLS44NDQgNS4wMDMtMS4zNCA4LjYyNy0zLjMwOCAxMy4xMjUtNS4wMzEgOS42NzctMy40NzEgMTcuNjkyLTYuMzcgMjUuNS03LjUgMy4yNjEtLjI1NSA2LjY5NyAyLjAxMiA4LjQwNiAyLjk2OWw2LjM3NS0xLjA5NGMxNC42NyA0NS40ODMgNDUuNDE0IDgyLjI0NSA4NC4zNDQgMTA1LjMxMmwtMi42NTYgNi4zNzVjLjk1NyAyLjQ3NSAyLjAxMyA1LjgyNSAxLjMgOC4yNjktMi44MzkgNy4zNjEtNy43MDEgMTUuMTMxLTEzLjIzOCAyMy43OTMtMi42ODEgNC4wMDItNS40MjUgNy4xMDgtNy44NDQgMTEuNjg4LS41NzkgMS4wOTYtMS4zMTYgMi43NzktMS44NzUgMy45MzgtMy43NTkgOC4wNDItMS4wMDIgMTcuMzA1IDYuMjE5IDIwLjc4MSA3LjI2NiAzLjQ5OCAxNi4yODQtLjE5MSAyMC4xODctOC4yNS4wMDYtLjAxMS4wMjYtLjAyLjAzMS0uMDMxcy0uMDA0LS4wMjMgMC0uMDMxYy41NTYtMS4xNDMgMS4zNDQtMi42NDQgMS44MTMtMy43MTkgMi4wNzItNC43NDcgMi43NjItOC44MTUgNC4yMTktMTMuNDA2IDMuODctOS43MiA1Ljk5Ni0xOS45MTkgMTEuMzIzLTI2LjI3NCAxLjQ1OS0xLjc0IDMuODM3LTIuNDA5IDYuMzAyLTMuMDdsMy4zMTMtNmMzMy45MzggMTMuMDI3IDcxLjkyNyAxNi41MjIgMTA5Ljg3NSA3LjkwNmExODkuNzcgMTg5Ljc3IDAgMCAwIDI1LjA5NC03LjU2MmwzLjEyNSA1LjYyNWMyLjUwNi44MTUgNS4yNCAxLjIzNiA3LjQ2OSA0LjUzMSAzLjk4NSA2LjgwOSA2LjcxMSAxNC44NjQgMTAuMDMxIDI0LjU5NCAxLjQ1NyA0LjU5MSAyLjE3OCA4LjY1OSA0LjI1IDEzLjQwNi40NzIgMS4wODIgMS4yNTYgMi42MDUgMS44MTMgMy43NSAzLjg5NSA4LjA4NSAxMi45NDIgMTEuNzg3IDIwLjIxOSA4LjI4MSA3LjIxOS0zLjQ3OCA5Ljk4LTEyLjc0IDYuMjE5LTIwLjc4MWwtMS45MDYtMy45MzdjLTIuNDE5LTQuNTgtNS4xNjMtNy42NTQtNy44NDQtMTEuNjU2LTUuNTM3LTguNjYyLTEwLjEzLTE1Ljg1OC0xMi45NjktMjMuMjE5LTEuMTg3LTMuNzk3LjItNi4xNTggMS4xMjUtOC42MjUtLjU1NC0uNjM1LTEuNzM5LTQuMjItMi40MzctNS45MDYgNDAuNDU3LTIzLjg4OCA3MC4yOTktNjIuMDIxIDg0LjMxMy0xMDYuMDYyIDEuODkyLjI5NyA1LjE4Mi44NzkgNi4yNSAxLjA5NCAyLjItMS40NTEgNC4yMjItMy4zNDQgOC4xODgtMy4wMzEgNy44MDggMS4xMjkgMTUuODIzIDQuMDMgMjUuNSA3LjUgNC40OTggMS43MjMgOC4xMjIgMy43MjMgMTMuMTI1IDUuMDYzIDEuMDU3LjI4MyAyLjU3Mi41NDcgMy43ODEuODEzLjA5Ny4wMjQuMTgzLjA3MS4yODEuMDk0LjA2NS4wMTUuMTU2LjAxNy4yMTkuMDMxIDguNjcyIDEuODY3IDE3LjA5NC0yLjg3OSAxOC44NzUtMTAuNjg3cy0zLjc1NC0xNS43MzItMTIuMzc1LTE3LjgxMmMtMS4yNTQtLjI4NS0zLjAzMi0uNzY5LTQuMjUtMS01LjA4OS0uOTY0LTkuMjMxLS43MjYtMTQuMDMxLTEuMTI1LTEwLjIyNS0xLjA3MS0xOC42OTMtMS45NDMtMjYuMjE5LTQuMzEyLTMuMDY4LTEuMTktNS4yNTEtNC44NDEtNi4zMTMtNi4zNDRsLTUuOTA2LTEuNzE5YzMuMDYyLTIyLjE1NCAyLjIzNy00NS4yMTEtMy4wNjItNjguMjgxLTUuMzQ4LTIzLjI4NS0xNC44LTQ0LjU4MS0yNy40MDYtNjMuMzQ0bDUuMTg4LTQuNjU2Yy4yMzctMi42MjQuMDMzLTUuMzc2IDIuNzUtOC4yODEgNS43NTEtNS40MDEgMTMuMDAzLTkuODc5IDIxLjc1LTE1LjI4MSA0LjE1Mi0yLjQ0MyA3Ljk5LTQuMDE3IDEyLjE1Ni03LjA5NC45NDItLjY5NiAyLjIyOS0xLjc5OCAzLjIxOS0yLjU5NCA3LjAxNS01LjU5NiA4LjYzMS0xNS4yNDggMy41OTQtMjEuNTYycy0xNC43OTctNi45MDktMjEuODEyLTEuMzEyYy0uOTk5Ljc5MS0yLjM1NCAxLjgyMy0zLjI1IDIuNTk0LTMuOTI3IDMuMzc4LTYuMzUxIDYuNzE0LTkuNjU2IDEwLjIxOS03LjIxMiA3LjMyNi0xMy4xNzQgMTMuNDM4LTE5LjcxOSAxNy44NDQtMi44MzYgMS42NTEtNi45OSAxLjA4LTguODc1Ljk2OWwtNS41NjIgMy45NjljLTMxLjcxOS0zMy4yNjEtNzQuOTA1LTU0LjUyNS0xMjEuNDA2LTU4LjY1NmwtLjM0NC02LjUzMWMtMS45MDQtMS44MjItNC4yMDMtMy4zNzctNC43ODEtNy4zMTItLjYzNi03Ljg2NC40MjYtMTYuMzI1IDEuNjU2LTI2LjUzMS42NzktNC43NjkgMS44MDctOC43MyAyLTEzLjkwNi4wNDQtMS4xNzctLjAyNi0yLjg4NC0uMDMxLTQuMTU2LS4wMDEtOC45NzQtNi41NDgtMTYuMjUxLTE0LjYyNS0xNi4yNXptLTE4LjMxMiAxMTMuNDM4bC00LjM0NCA3Ni43MTktLjMxMi4xNTZjLS4yOTEgNi44NjMtNS45NCAxMi4zNDQtMTIuODc1IDEyLjM0NGExMi44MiAxMi44MiAwIDAgMS03LjU5NC0yLjQ2OWwtLjEyNS4wNjMtNjIuOTA2LTQ0LjU5NGMxOS4zMzQtMTkuMDExIDQ0LjA2My0zMy4wNiA3Mi41NjItMzkuNTMxIDUuMjA2LTEuMTgyIDEwLjQxLTIuMDU5IDE1LjU5NC0yLjY4N3ptMzYuNjU2IDBjMzMuMjczIDQuMDkyIDY0LjA0NSAxOS4xNTkgODcuNjI1IDQyLjI1bC02Mi41IDQ0LjMxMy0uMjE5LS4wOTRhMTIuOTEgMTIuOTEgMCAwIDEtMTcuNjg3LTIuMzc1Yy0xLjc3MS0yLjIyMS0yLjcwMS00LjgzMi0yLjgxMi03LjQ2OWwtLjA2Mi0uMDMxek0yMzIuMTI2IDI4My42Mmw1Ny40MzcgNTEuMzc1LS4wNjIuMzEzYTEyLjg4IDEyLjg4IDAgMCAxIDEuNjI1IDE3Ljc1IDEyLjg5IDEyLjg5IDAgMCAxLTYuNjg3IDQuNDA2bC0uMDYyLjI1LTczLjYyNSAyMS4yNWMtMy43NDctMzQuMjY1IDQuMzI5LTY3LjU3NCAyMS4zNzUtOTUuMzQ0em0yNTguMTU2LjAzMWM4LjUzNCAxMy44MzMgMTQuOTk3IDI5LjI4MiAxOC44NDQgNDYuMDMxIDMuODAxIDE2LjU0OCA0Ljc1NSAzMy4wNjcgMy4xODggNDkuMDMxbC03NC0yMS4zMTItLjA2Mi0uMzEyYy02LjYyNy0xLjgxMS0xMC42OTktOC41NTItOS4xNTYtMTUuMzEyLjYzMi0yLjc3IDIuMTAyLTUuMTEzIDQuMDk0LTYuODQ0bC0uMDMxLS4xNTYgNTcuMTI1LTUxLjEyNXptLTE0MC42NTYgNTUuMzEzaDIzLjUzMWwxNC42MjUgMTguMjgxLTUuMjUgMjIuODEzLTIxLjEyNSAxMC4xNTYtMjEuMTg3LTEwLjE4Ny01LjI1LTIyLjgxMnptNzUuNDM4IDYyLjU2M2ExMi44MyAxMi44MyAwIDAgMSAyLjk2OS4yMTlsLjEyNS0uMTU2IDc2LjE1NiAxMi44NzVjLTExLjE0NiAzMS4zMTMtMzIuNDczIDU4LjQ0LTYwLjk2OSA3Ni41OTRsLTI5LjU2Mi03MS40MDYuMDk0LS4xMjVjLTIuNzE2LTYuMzEuMDAyLTEzLjcxIDYuMjUtMTYuNzE5IDEuNi0uNzcgMy4yNzEtMS4xOTcgNC45MzgtMS4yODF6bS0xMjcuOTA2LjMxM2ExMi45IDEyLjkgMCAwIDEgMTIuMzc1IDEwLjAzMSAxMi43NyAxMi43NyAwIDAgMS0uNzE5IDcuOTM4bC4yMTkuMjgxLTI5LjI1IDcwLjY4OGMtMjcuMzQ3LTE3LjU0OS00OS4xMjktNDMuODI0LTYwLjc4MS03Ni4wNjJsNzUuNS0xMi44MTIuMTI1LjE1NmMuODQ1LS4xNTUgMS43MDEtLjIzIDIuNTMxLS4yMTl6bTYzLjc4MSAzMC45NjljMi4wMjQtLjA3NCA0LjA3OS4zNDEgNi4wMzEgMS4yODEgMi41NiAxLjIzMyA0LjUzNyAzLjE3MyA1Ljc4MSA1LjVoLjI4MWwzNy4yMTkgNjcuMjVjLTQuODMgMS42MTktOS43OTYgMy4wMDMtMTQuODc1IDQuMTU2LTI4LjQ2NSA2LjQ2My01Ni44MzkgNC41MDUtODIuNTMxLTQuMjVsMzcuMTI1LTY3LjEyNWguMDYzYTEyLjkxIDEyLjkxIDAgMCAxIDEwLjkwNi02LjgxMnoiIHN0cm9rZT0ibm9uZSIgc3Ryb2tlLXdpZHRoPSIuMjUiLz4mI3hhOzwvc3ZnPg==;" vertex="1" parent="sdSFOSKggI8gM6giwSen-277">
          <mxGeometry x="10" y="10" width="31.5" height="30" as="geometry" />
        </mxCell>
        <mxCell id="sdSFOSKggI8gM6giwSen-282" value="" style="container=1;collapsible=0;expand=0;recursiveResize=0;html=1;whiteSpace=wrap;strokeColor=light-dark(#326de5, #55ae70);fillColor=none;strokeWidth=1" vertex="1" parent="sdSFOSKggI8gM6giwSen-277">
          <mxGeometry x="30" y="60" width="450" height="758" as="geometry" />
        </mxCell>
        <mxCell id="sdSFOSKggI8gM6giwSen-283" value="Minikube Node" style="shape=rect;fillColor=none;aspect=fixed;resizable=0;labelPosition=right;verticalLabelPosition=middle;align=left;verticalAlign=middle;strokeColor=none;part=1;spacingLeft=5;fontSize=14;" vertex="1" parent="sdSFOSKggI8gM6giwSen-282">
          <mxGeometry width="48" height="48" relative="1" as="geometry" />
        </mxCell>
        <mxCell id="sdSFOSKggI8gM6giwSen-284" value="" style="fillColor=#198038;shape=mxgraph.ibm_cloud.ibm-cloud--kubernetes-service;strokeColor=none;dashed=0;outlineConnect=0;html=1;labelPosition=center;verticalLabelPosition=bottom;verticalAlign=top;part=1;movable=0;resizable=0;rotatable=0;" vertex="1" parent="sdSFOSKggI8gM6giwSen-283">
          <mxGeometry width="24" height="24" relative="1" as="geometry">
            <mxPoint x="12" y="12" as="offset" />
          </mxGeometry>
        </mxCell>
        <mxCell id="sdSFOSKggI8gM6giwSen-285" value="" style="shape=rect;fillColor=light-dark(#326de5, #55ae70);aspect=fixed;resizable=0;labelPosition=right;verticalLabelPosition=middle;align=left;verticalAlign=middle;strokeColor=none;part=1;spacingLeft=5;fontSize=14;" vertex="1" parent="sdSFOSKggI8gM6giwSen-282">
          <mxGeometry width="4" height="48" relative="1" as="geometry" />
        </mxCell>
        <mxCell id="sdSFOSKggI8gM6giwSen-286" value="" style="sketch=0;html=1;verticalAlign=top;labelPosition=center;verticalLabelPosition=bottom;align=center;spacingTop=-6;fontSize=11;fontStyle=1;fontColor=#999999;shape=image;aspect=fixed;imageAspect=0;image=data:image/svg+xml,PHN2ZyB4bWxucz0iaHR0cDovL3d3dy53My5vcmcvMjAwMC9zdmciIHhtbG5zOnY9Imh0dHBzOi8vdmVjdGEuaW8vbmFubyIgd2lkdGg9IjcwMi44NDYzMTM0NzY1NjI1IiBoZWlnaHQ9IjY4MS45NjcxMDIwNTA3ODEyIiB2aWV3Qm94PSIxMC4wMDEwMjYxNTM1NjQ0NTMgMTAuMDAwOTMzNjQ3MTU1NzYyIDcwMi44NDYzMTM0NzY1NjI1IDY4MS45NjcxMDIwNTA3ODEyIj4mI3hhOwk8c3R5bGUgdHlwZT0idGV4dC9jc3MiPiYjeGE7CS5zdDB7ZmlsbDojMzI2Y2U1O30mI3hhOwkuc3Qxe2ZpbGw6I2ZmZjt9JiN4YTsJPC9zdHlsZT4mI3hhOwk8cGF0aCBjbGFzcz0ic3QwIiBkPSJNMzU4Ljk4NyAxMC4wNmMtNi4yMTMuMzEzLTEyLjMwMSAxLjg1NC0xNy45MDYgNC41MzFMOTYuNzM3IDEzMS4zNDJjLTEyLjgxMSA2LjExOC0yMi4xMTYgMTcuNjg5LTI1LjI4MSAzMS40MzhsLTYwLjI4MSAyNjIuMjVjLTIuODEyIDEyLjIwNy0uNTI0IDI1LjAyNCA2LjM0NCAzNS41MzFhNDYuMzUgNDYuMzUgMCAwIDAgMi42NTYgMy42ODhsMTY5LjEyNSAyMTAuMjgxYzguODY4IDExLjAyMiAyMi4zMTMgMTcuNDQgMzYuNTMxIDE3LjQzOGwyNzEuMjE5LS4wNjJjMTQuMjEyLjAxIDI3LjY1Ny02LjM5NiAzNi41MzEtMTcuNDA2bDE2OS4wNjMtMjEwLjMxM2M4Ljg3My0xMS4wMjggMTIuMTk3LTI1LjQ2NCA5LjAzMS0zOS4yMTlsLTYwLjM3NS0yNjIuMjVjLTMuMTY1LTEzLjc0OC0xMi40Ny0yNS4zMTktMjUuMjgxLTMxLjQzN0wzODEuNjQzIDE0LjU5MmMtNy4wNS0zLjM2OC0xNC44NDEtNC45MjYtMjIuNjU2LTQuNTMxeiIvPiYjeGE7CTxwYXRoIGNsYXNzPSJzdDEgc3QyIiBkPSJNMzYxLjQwOCA5OS4zMDhjLTguMDc3LjAwMS0xNC42MjYgNy4yNzYtMTQuNjI1IDE2LjI1IDAgLjEzOC4wMjguMjY5LjAzMS40MDYtLjAxMiAxLjIxOS0uMDcxIDIuNjg4LS4wMzEgMy43NS4xOTMgNS4xNzYgMS4zMjEgOS4xMzcgMiAxMy45MDYgMS4yMyAxMC4yMDcgMi4yNjEgMTguNjY3IDEuNjI1IDI2LjUzMS0uNjE5IDIuOTY1LTIuODAzIDUuNjc3LTQuNzUgNy41NjNsLS4zNDQgNi4xODhjLTguNzc3LjcyNy0xNy42MTIgMi4wNTktMjYuNDM3IDQuMDYzLTM3Ljk3NSA4LjYyMi03MC42NyAyOC4xODMtOTUuNTYyIDU0LjU5NC0xLjYxNS0xLjEwMi00LjQ0MS0zLjEyOS01LjI4MS0zLjc1LTIuNjExLjM1My01LjI1IDEuMTU4LTguNjg3LS44NDQtNi41NDUtNC40MDYtMTIuNTA2LTEwLjQ4Ny0xOS43MTktMTcuODEyLTMuMzA1LTMuNTA0LTUuNjk4LTYuODQxLTkuNjI1LTEwLjIxOS0uODkyLS43NjctMi4yNTMtMS44MDUtMy4yNS0yLjU5NC0zLjA3LTIuNDQ4LTYuNjkxLTMuNzI0LTEwLjE4Ny0zLjg0NC00LjQ5Ni0uMTU0LTguODI0IDEuNjA0LTExLjY1NiA1LjE1Ni01LjAzNSA2LjMxNS0zLjQyMyAxNS45NjggMy41OTQgMjEuNTYzLjA3MS4wNTcuMTQ3LjEwMS4yMTkuMTU2Ljk2NC43ODIgMi4xNDUgMS43ODMgMy4wMzEgMi40MzggNC4xNjcgMy4wNzcgNy45NzMgNC42NTEgMTIuMTI1IDcuMDk0IDguNzQ3IDUuNDAyIDE1Ljk5OCA5Ljg4MSAyMS43NSAxNS4yODEgMi4yNDYgMi4zOTQgMi42MzkgNi42MTMgMi45MzggOC40MzhsNC42ODggNC4xODhjLTI1LjA5MyAzNy43NjQtMzYuNzA3IDg0LjQwOS0yOS44NDQgMTMxLjkzOGwtNi4xMjUgMS43ODFjLTEuNjE0IDIuMDg1LTMuODk1IDUuMzY1LTYuMjgxIDYuMzQ0LTcuNTI1IDIuMzctMTUuOTk0IDMuMjQxLTI2LjIxOSA0LjMxMy00LjguMzk5LTguOTQyLjE2MS0xNC4wMzEgMS4xMjUtMS4xMi4yMTItMi42ODEuNjE5LTMuOTA2LjkwNi0uMDQzLjAwOS0uMDgyLjAyMi0uMTI1LjAzMS0uMDY3LjAxNS0uMTU1LjA0OC0uMjE5LjA2My04LjYyIDIuMDgzLTE0LjE1OCAxMC4wMDYtMTIuMzc1IDE3LjgxM3MxMC4yMDMgMTIuNTU3IDE4Ljg3NSAxMC42ODhjLjA2My0uMDE0LjE1NC0uMDE3LjIxOS0uMDMxLjA5OC0uMDIyLjE4NC0uMDcuMjgxLS4wOTQgMS4yMDktLjI2NSAyLjcyNC0uNTYxIDMuNzgxLS44NDQgNS4wMDMtMS4zNCA4LjYyNy0zLjMwOCAxMy4xMjUtNS4wMzEgOS42NzctMy40NzEgMTcuNjkyLTYuMzcgMjUuNS03LjUgMy4yNjEtLjI1NSA2LjY5NyAyLjAxMiA4LjQwNiAyLjk2OWw2LjM3NS0xLjA5NGMxNC42NyA0NS40ODMgNDUuNDE0IDgyLjI0NSA4NC4zNDQgMTA1LjMxMmwtMi42NTYgNi4zNzVjLjk1NyAyLjQ3NSAyLjAxMyA1LjgyNSAxLjMgOC4yNjktMi44MzkgNy4zNjEtNy43MDEgMTUuMTMxLTEzLjIzOCAyMy43OTMtMi42ODEgNC4wMDItNS40MjUgNy4xMDgtNy44NDQgMTEuNjg4LS41NzkgMS4wOTYtMS4zMTYgMi43NzktMS44NzUgMy45MzgtMy43NTkgOC4wNDItMS4wMDIgMTcuMzA1IDYuMjE5IDIwLjc4MSA3LjI2NiAzLjQ5OCAxNi4yODQtLjE5MSAyMC4xODctOC4yNS4wMDYtLjAxMS4wMjYtLjAyLjAzMS0uMDMxcy0uMDA0LS4wMjMgMC0uMDMxYy41NTYtMS4xNDMgMS4zNDQtMi42NDQgMS44MTMtMy43MTkgMi4wNzItNC43NDcgMi43NjItOC44MTUgNC4yMTktMTMuNDA2IDMuODctOS43MiA1Ljk5Ni0xOS45MTkgMTEuMzIzLTI2LjI3NCAxLjQ1OS0xLjc0IDMuODM3LTIuNDA5IDYuMzAyLTMuMDdsMy4zMTMtNmMzMy45MzggMTMuMDI3IDcxLjkyNyAxNi41MjIgMTA5Ljg3NSA3LjkwNmExODkuNzcgMTg5Ljc3IDAgMCAwIDI1LjA5NC03LjU2MmwzLjEyNSA1LjYyNWMyLjUwNi44MTUgNS4yNCAxLjIzNiA3LjQ2OSA0LjUzMSAzLjk4NSA2LjgwOSA2LjcxMSAxNC44NjQgMTAuMDMxIDI0LjU5NCAxLjQ1NyA0LjU5MSAyLjE3OCA4LjY1OSA0LjI1IDEzLjQwNi40NzIgMS4wODIgMS4yNTYgMi42MDUgMS44MTMgMy43NSAzLjg5NSA4LjA4NSAxMi45NDIgMTEuNzg3IDIwLjIxOSA4LjI4MSA3LjIxOS0zLjQ3OCA5Ljk4LTEyLjc0IDYuMjE5LTIwLjc4MWwtMS45MDYtMy45MzdjLTIuNDE5LTQuNTgtNS4xNjMtNy42NTQtNy44NDQtMTEuNjU2LTUuNTM3LTguNjYyLTEwLjEzLTE1Ljg1OC0xMi45NjktMjMuMjE5LTEuMTg3LTMuNzk3LjItNi4xNTggMS4xMjUtOC42MjUtLjU1NC0uNjM1LTEuNzM5LTQuMjItMi40MzctNS45MDYgNDAuNDU3LTIzLjg4OCA3MC4yOTktNjIuMDIxIDg0LjMxMy0xMDYuMDYyIDEuODkyLjI5NyA1LjE4Mi44NzkgNi4yNSAxLjA5NCAyLjItMS40NTEgNC4yMjItMy4zNDQgOC4xODgtMy4wMzEgNy44MDggMS4xMjkgMTUuODIzIDQuMDMgMjUuNSA3LjUgNC40OTggMS43MjMgOC4xMjIgMy43MjMgMTMuMTI1IDUuMDYzIDEuMDU3LjI4MyAyLjU3Mi41NDcgMy43ODEuODEzLjA5Ny4wMjQuMTgzLjA3MS4yODEuMDk0LjA2NS4wMTUuMTU2LjAxNy4yMTkuMDMxIDguNjcyIDEuODY3IDE3LjA5NC0yLjg3OSAxOC44NzUtMTAuNjg3cy0zLjc1NC0xNS43MzItMTIuMzc1LTE3LjgxMmMtMS4yNTQtLjI4NS0zLjAzMi0uNzY5LTQuMjUtMS01LjA4OS0uOTY0LTkuMjMxLS43MjYtMTQuMDMxLTEuMTI1LTEwLjIyNS0xLjA3MS0xOC42OTMtMS45NDMtMjYuMjE5LTQuMzEyLTMuMDY4LTEuMTktNS4yNTEtNC44NDEtNi4zMTMtNi4zNDRsLTUuOTA2LTEuNzE5YzMuMDYyLTIyLjE1NCAyLjIzNy00NS4yMTEtMy4wNjItNjguMjgxLTUuMzQ4LTIzLjI4NS0xNC44LTQ0LjU4MS0yNy40MDYtNjMuMzQ0bDUuMTg4LTQuNjU2Yy4yMzctMi42MjQuMDMzLTUuMzc2IDIuNzUtOC4yODEgNS43NTEtNS40MDEgMTMuMDAzLTkuODc5IDIxLjc1LTE1LjI4MSA0LjE1Mi0yLjQ0MyA3Ljk5LTQuMDE3IDEyLjE1Ni03LjA5NC45NDItLjY5NiAyLjIyOS0xLjc5OCAzLjIxOS0yLjU5NCA3LjAxNS01LjU5NiA4LjYzMS0xNS4yNDggMy41OTQtMjEuNTYycy0xNC43OTctNi45MDktMjEuODEyLTEuMzEyYy0uOTk5Ljc5MS0yLjM1NCAxLjgyMy0zLjI1IDIuNTk0LTMuOTI3IDMuMzc4LTYuMzUxIDYuNzE0LTkuNjU2IDEwLjIxOS03LjIxMiA3LjMyNi0xMy4xNzQgMTMuNDM4LTE5LjcxOSAxNy44NDQtMi44MzYgMS42NTEtNi45OSAxLjA4LTguODc1Ljk2OWwtNS41NjIgMy45NjljLTMxLjcxOS0zMy4yNjEtNzQuOTA1LTU0LjUyNS0xMjEuNDA2LTU4LjY1NmwtLjM0NC02LjUzMWMtMS45MDQtMS44MjItNC4yMDMtMy4zNzctNC43ODEtNy4zMTItLjYzNi03Ljg2NC40MjYtMTYuMzI1IDEuNjU2LTI2LjUzMS42NzktNC43NjkgMS44MDctOC43MyAyLTEzLjkwNi4wNDQtMS4xNzctLjAyNi0yLjg4NC0uMDMxLTQuMTU2LS4wMDEtOC45NzQtNi41NDgtMTYuMjUxLTE0LjYyNS0xNi4yNXptLTE4LjMxMiAxMTMuNDM4bC00LjM0NCA3Ni43MTktLjMxMi4xNTZjLS4yOTEgNi44NjMtNS45NCAxMi4zNDQtMTIuODc1IDEyLjM0NGExMi44MiAxMi44MiAwIDAgMS03LjU5NC0yLjQ2OWwtLjEyNS4wNjMtNjIuOTA2LTQ0LjU5NGMxOS4zMzQtMTkuMDExIDQ0LjA2My0zMy4wNiA3Mi41NjItMzkuNTMxIDUuMjA2LTEuMTgyIDEwLjQxLTIuMDU5IDE1LjU5NC0yLjY4N3ptMzYuNjU2IDBjMzMuMjczIDQuMDkyIDY0LjA0NSAxOS4xNTkgODcuNjI1IDQyLjI1bC02Mi41IDQ0LjMxMy0uMjE5LS4wOTRhMTIuOTEgMTIuOTEgMCAwIDEtMTcuNjg3LTIuMzc1Yy0xLjc3MS0yLjIyMS0yLjcwMS00LjgzMi0yLjgxMi03LjQ2OWwtLjA2Mi0uMDMxek0yMzIuMTI2IDI4My42Mmw1Ny40MzcgNTEuMzc1LS4wNjIuMzEzYTEyLjg4IDEyLjg4IDAgMCAxIDEuNjI1IDE3Ljc1IDEyLjg5IDEyLjg5IDAgMCAxLTYuNjg3IDQuNDA2bC0uMDYyLjI1LTczLjYyNSAyMS4yNWMtMy43NDctMzQuMjY1IDQuMzI5LTY3LjU3NCAyMS4zNzUtOTUuMzQ0em0yNTguMTU2LjAzMWM4LjUzNCAxMy44MzMgMTQuOTk3IDI5LjI4MiAxOC44NDQgNDYuMDMxIDMuODAxIDE2LjU0OCA0Ljc1NSAzMy4wNjcgMy4xODggNDkuMDMxbC03NC0yMS4zMTItLjA2Mi0uMzEyYy02LjYyNy0xLjgxMS0xMC42OTktOC41NTItOS4xNTYtMTUuMzEyLjYzMi0yLjc3IDIuMTAyLTUuMTEzIDQuMDk0LTYuODQ0bC0uMDMxLS4xNTYgNTcuMTI1LTUxLjEyNXptLTE0MC42NTYgNTUuMzEzaDIzLjUzMWwxNC42MjUgMTguMjgxLTUuMjUgMjIuODEzLTIxLjEyNSAxMC4xNTYtMjEuMTg3LTEwLjE4Ny01LjI1LTIyLjgxMnptNzUuNDM4IDYyLjU2M2ExMi44MyAxMi44MyAwIDAgMSAyLjk2OS4yMTlsLjEyNS0uMTU2IDc2LjE1NiAxMi44NzVjLTExLjE0NiAzMS4zMTMtMzIuNDczIDU4LjQ0LTYwLjk2OSA3Ni41OTRsLTI5LjU2Mi03MS40MDYuMDk0LS4xMjVjLTIuNzE2LTYuMzEuMDAyLTEzLjcxIDYuMjUtMTYuNzE5IDEuNi0uNzcgMy4yNzEtMS4xOTcgNC45MzgtMS4yODF6bS0xMjcuOTA2LjMxM2ExMi45IDEyLjkgMCAwIDEgMTIuMzc1IDEwLjAzMSAxMi43NyAxMi43NyAwIDAgMS0uNzE5IDcuOTM4bC4yMTkuMjgxLTI5LjI1IDcwLjY4OGMtMjcuMzQ3LTE3LjU0OS00OS4xMjktNDMuODI0LTYwLjc4MS03Ni4wNjJsNzUuNS0xMi44MTIuMTI1LjE1NmMuODQ1LS4xNTUgMS43MDEtLjIzIDIuNTMxLS4yMTl6bTYzLjc4MSAzMC45NjljMi4wMjQtLjA3NCA0LjA3OS4zNDEgNi4wMzEgMS4yODEgMi41NiAxLjIzMyA0LjUzNyAzLjE3MyA1Ljc4MSA1LjVoLjI4MWwzNy4yMTkgNjcuMjVjLTQuODMgMS42MTktOS43OTYgMy4wMDMtMTQuODc1IDQuMTU2LTI4LjQ2NSA2LjQ2My01Ni44MzkgNC41MDUtODIuNTMxLTQuMjVsMzcuMTI1LTY3LjEyNWguMDYzYTEyLjkxIDEyLjkxIDAgMCAxIDEwLjkwNi02LjgxMnoiIHN0cm9rZT0ibm9uZSIgc3Ryb2tlLXdpZHRoPSIuMjUiLz4mI3hhOzwvc3ZnPg==;" vertex="1" parent="sdSFOSKggI8gM6giwSen-282">
          <mxGeometry x="10" y="10" width="31.5" height="30" as="geometry" />
        </mxCell>
        <mxCell id="sdSFOSKggI8gM6giwSen-287" value="" style="container=1;collapsible=0;expand=0;recursiveResize=0;html=1;whiteSpace=wrap;strokeColor=light-dark(#326de5, #55ae70);fillColor=none;strokeWidth=1" vertex="1" parent="sdSFOSKggI8gM6giwSen-282">
          <mxGeometry x="20" y="430" width="400" height="310" as="geometry" />
        </mxCell>
        <mxCell id="sdSFOSKggI8gM6giwSen-288" value="kubernetes-grafana-k8s" style="shape=rect;fillColor=none;aspect=fixed;resizable=0;labelPosition=right;verticalLabelPosition=middle;align=left;verticalAlign=middle;strokeColor=none;part=1;spacingLeft=5;fontSize=14;" vertex="1" parent="sdSFOSKggI8gM6giwSen-287">
          <mxGeometry width="48" height="48" relative="1" as="geometry" />
        </mxCell>
        <mxCell id="sdSFOSKggI8gM6giwSen-289" value="" style="fillColor=#198038;shape=mxgraph.ibm_cloud.ibm-cloud--kubernetes-service;strokeColor=none;dashed=0;outlineConnect=0;html=1;labelPosition=center;verticalLabelPosition=bottom;verticalAlign=top;part=1;movable=0;resizable=0;rotatable=0;" vertex="1" parent="sdSFOSKggI8gM6giwSen-288">
          <mxGeometry width="24" height="24" relative="1" as="geometry">
            <mxPoint x="12" y="12" as="offset" />
          </mxGeometry>
        </mxCell>
        <mxCell id="sdSFOSKggI8gM6giwSen-290" value="" style="shape=rect;fillColor=light-dark(#326de5, #55ae70);aspect=fixed;resizable=0;labelPosition=right;verticalLabelPosition=middle;align=left;verticalAlign=middle;strokeColor=none;part=1;spacingLeft=5;fontSize=14;" vertex="1" parent="sdSFOSKggI8gM6giwSen-287">
          <mxGeometry width="4" height="48" relative="1" as="geometry" />
        </mxCell>
        <mxCell id="sdSFOSKggI8gM6giwSen-291" value="" style="aspect=fixed;sketch=0;html=1;dashed=0;whitespace=wrap;verticalLabelPosition=bottom;verticalAlign=top;fillColor=#2875E2;strokeColor=#ffffff;points=[[0.005,0.63,0],[0.1,0.2,0],[0.9,0.2,0],[0.5,0,0],[0.995,0.63,0],[0.72,0.99,0],[0.5,1,0],[0.28,0.99,0]];shape=mxgraph.kubernetes.icon2;kubernetesLabel=1;prIcon=ns" vertex="1" parent="sdSFOSKggI8gM6giwSen-287">
          <mxGeometry x="10" width="41.67" height="40" as="geometry" />
        </mxCell>
        <mxCell id="sdSFOSKggI8gM6giwSen-292" style="edgeStyle=orthogonalEdgeStyle;rounded=0;orthogonalLoop=1;jettySize=auto;html=1;" edge="1" parent="sdSFOSKggI8gM6giwSen-287" source="sdSFOSKggI8gM6giwSen-294" target="sdSFOSKggI8gM6giwSen-298">
          <mxGeometry relative="1" as="geometry" />
        </mxCell>
        <mxCell id="sdSFOSKggI8gM6giwSen-293" style="edgeStyle=orthogonalEdgeStyle;rounded=0;orthogonalLoop=1;jettySize=auto;html=1;" edge="1" parent="sdSFOSKggI8gM6giwSen-287" source="sdSFOSKggI8gM6giwSen-294" target="sdSFOSKggI8gM6giwSen-297">
          <mxGeometry relative="1" as="geometry" />
        </mxCell>
        <mxCell id="sdSFOSKggI8gM6giwSen-294" value="NodeJS App" style="aspect=fixed;sketch=0;html=1;dashed=0;whitespace=wrap;verticalLabelPosition=bottom;verticalAlign=top;fillColor=#2875E2;strokeColor=#ffffff;points=[[0.005,0.63,0],[0.1,0.2,0],[0.9,0.2,0],[0.5,0,0],[0.995,0.63,0],[0.72,0.99,0],[0.5,1,0],[0.28,0.99,0]];shape=mxgraph.kubernetes.icon2;kubernetesLabel=1;prIcon=pod" vertex="1" parent="sdSFOSKggI8gM6giwSen-287">
          <mxGeometry x="150" y="192" width="50" height="48" as="geometry" />
        </mxCell>
        <mxCell id="sdSFOSKggI8gM6giwSen-295" value="Grafana" style="aspect=fixed;sketch=0;html=1;dashed=0;whitespace=wrap;verticalLabelPosition=bottom;verticalAlign=top;fillColor=#2875E2;strokeColor=#ffffff;points=[[0.005,0.63,0],[0.1,0.2,0],[0.9,0.2,0],[0.5,0,0],[0.995,0.63,0],[0.72,0.99,0],[0.5,1,0],[0.28,0.99,0]];shape=mxgraph.kubernetes.icon2;kubernetesLabel=1;prIcon=pod" vertex="1" parent="sdSFOSKggI8gM6giwSen-287">
          <mxGeometry x="330" y="192" width="50" height="48" as="geometry" />
        </mxCell>
        <mxCell id="sdSFOSKggI8gM6giwSen-296" style="edgeStyle=orthogonalEdgeStyle;rounded=0;orthogonalLoop=1;jettySize=auto;html=1;" edge="1" parent="sdSFOSKggI8gM6giwSen-287" source="sdSFOSKggI8gM6giwSen-297" target="sdSFOSKggI8gM6giwSen-295">
          <mxGeometry relative="1" as="geometry" />
        </mxCell>
        <mxCell id="sdSFOSKggI8gM6giwSen-297" value="Prometheus" style="aspect=fixed;sketch=0;html=1;dashed=0;whitespace=wrap;verticalLabelPosition=bottom;verticalAlign=top;fillColor=#2875E2;strokeColor=#ffffff;points=[[0.005,0.63,0],[0.1,0.2,0],[0.9,0.2,0],[0.5,0,0],[0.995,0.63,0],[0.72,0.99,0],[0.5,1,0],[0.28,0.99,0]];shape=mxgraph.kubernetes.icon2;kubernetesLabel=1;prIcon=pod" vertex="1" parent="sdSFOSKggI8gM6giwSen-287">
          <mxGeometry x="260" y="192" width="50" height="48" as="geometry" />
        </mxCell>
        <mxCell id="sdSFOSKggI8gM6giwSen-298" value="Postgres" style="aspect=fixed;sketch=0;html=1;dashed=0;whitespace=wrap;verticalLabelPosition=bottom;verticalAlign=top;fillColor=#2875E2;strokeColor=#ffffff;points=[[0.005,0.63,0],[0.1,0.2,0],[0.9,0.2,0],[0.5,0,0],[0.995,0.63,0],[0.72,0.99,0],[0.5,1,0],[0.28,0.99,0]];shape=mxgraph.kubernetes.icon2;kubernetesLabel=1;prIcon=pod" vertex="1" parent="sdSFOSKggI8gM6giwSen-287">
          <mxGeometry x="34" y="192" width="50" height="48" as="geometry" />
        </mxCell>
        <mxCell id="sdSFOSKggI8gM6giwSen-299" value="" style="shape=image;verticalLabelPosition=bottom;labelBackgroundColor=default;verticalAlign=top;aspect=fixed;imageAspect=0;image=data:image/png,iVBORw0KGgoAAAANSUhEUgAAAGQAAABvCAYAAAAaJWWXAAAAAXNSR0IArs4c6QAAFh1JREFUeF7tXXl8VNW9/51z752ZzJZ9G0I2Q4hY+551K9Wi2Fq1y3v6LEj4KC6tYIuIbIo8lKgoIAJabLFafC6VsLS1T0W01Ypi1Vaq7avWhDUhIQnZZzKZySz3nPe5AwnJzNy5524x0N6/ks/89u9Zf2dD8K9vTEUAjSlrDDLm8IyqUheQjX8Q9109fQeIBokdFTGnHSDt1VWrLAiWDkZvQKRXF2yr/99RiaYBSk4rQLqrJ36CEfr3+LiIFHZm19Z914B4mS7itAGku7qqBSMolIsYIXA4a2tduekR1angtACku7qqCSMoUooFobQpq7a+WInui/z9lAeku3riHzBCU1mDKFJ4P7u27iJW+tGmO6UBaZ9RdZMFw/+oDVpQhHmF2+qeUMs3GvSnLCCfTZtkGSeQkLYgIeixBNPKnm0Y0MZvHtcpC0h3ddWnGMFZWkNDKPo8q/bzSVr5zeI7JQE5PG1SQaZAWvUGJUBJrqd2X6deOUbyn5KA6K0dgwEUKXyQXVv3NSMDqlfWKQcIBUDemVVEneOSmzQpS0dP1DZh1wGNfZE6K1ioTzlAWq+rvCqNw6+xOpcchkRuCuATKf1dSITHPJPqP0A1oAj68ZwZXYARXIMRkial/KDkHgJlZVvrGljsHE5zygDSel3l+QLGa3kEUwDAJLtP1iQK4I0SsiHS71/reaUlMBg0WgO48/OJ6wQO3QEAWC7ghEJrVm2d57QCpO2GLzv4SGgTj9H15oGgHDIK0DNA6GwOaL4FY4X5y0lQ+yJ++/gdzUFlDScpTCppakxIpG2aVjnOweM3MYIqfZK+WO4woWvyttYPZZ5ZrBlTgDTOLM50U/uHCEEli/EjaOT77Vj7xtqXaNebqIUC9GVuqXOrkakLkP1XVVjdLv5SniM3IsBTEII8BCAkMUCUqr1I6QeiSJ8J2MOvx8+Su6ort3AIVw/ymhpENRHSSZuxpU5VjFURS7a1TqvIFXj+UR6BFLxkwWdygQKERUKfjALZYsPc+6k6SCaBCkT6AdYm4ZOWAmHq7t1RVh+YATl8dWlGht12BAG4WIUbRicXC20xMswsFkFdkXDGGTsOeVloJRpmQFqurjrXboe9rIJPbTrjkPaCkFWy5e89rPFgBqT5+5XfcFrwm6yCxz6dcUGP93W45KMRbD1rxz/CrPFgBqTluopv2Tn+jSHBhvtjuMBkMZAGWxSAilLjIKVhEACnpqVQCmy8F6Z16u3TKi+2CHjP8VZOxyAyjl1RmiJBYogIhRZKxFdCwP0miuin7W5nx3lP/SWSKphvX3opf0ZBa56FoEsEDmZxCC4FAJsSAAq/009aCiymdOot11ZW2a34c50GmsIeS3OIZH2AG9hYsuUIc3utZMz2acB9HVVeYeW4RzGiZ2opi9Jo8veROjvr/jDmJkuatKWDvVvJCb2/qxhQ0SilP+mzhpaOxsqf1Lx1TJ94s8CjJxBAmho/KUB/5pY6JwsPMyBSUs27r2os7AIUB0RyfcG2fVtZHDSDpn1GxTkC5t9EAFms8glFB7NqP69QomcGRBLUO7NKR+dx3BQNXcKQD2FC783bWr9SyanR+v3YtIrJFoHfjQAsLDojhG7O3Vr/w1S0qgDpmVnVjwDsLMo10cigRSkcC/p95cPT4Jrkm8TUPqPyYQvG97CI90eiXyvaceADOVpVgHRWT3yZR+h7LIqNogmL9Gd52+rnGiXPLDnN11RlO9JAymQoFtj0yjpObgFMFSBHp0+8yMGj94x1Sr4RC0bpdYXb67cbq89caV3VE3dxCF2ZSkuUwic5tXVfSUajChDW9Ww9/cSgkYEI+bpnxz6DwTcXjEHp7TMq5yotZAUIPd+ztT4hFaUKEElhz8yqTgSQbaZrwSi9rHB7/dtm6jBb9rHqMy+3Ivq7FHoiGVvqEgYDqgFpm1E108bBi+Y4hCBE6G35tXU/N0f+6Eo9OqPiHAfHfyynNUTI3PzafT8b/rtqQCTm3hsm6h7+JjNSJHRn9ov7TolzHKzQNldXTHbysfWeZB/NeKF+xEYJTYB03iCNtsDQ0RYFCGY+X684QmENxFiia71+4vQ0DNuS2RQi5Lb8X+4fahE0ASIt3eblY0M3KneIYn7FCwfbx1IgjbSl44bK9QIHC5IEXEx/dt/Qfi5NgEiGdt404WVBZk4itWdqBBNCn818bv/NRgZgLMrquamyHifZwBEIk7MKXzzwD8lmNXEb4aOU2/I1VRqR26Lpm/fJbjgzMrBSzU7PxZdxAp2FKfoqAsgFFNtteHykTiFIKRwliLwvEvqbqCX4ruepk5vk9NoiTRt8P4jFbETcCaWfZj6z/2xdgEjMx26ZcK0Nw6/0GBoi9Id5zxzYrEdGKl5pneNL5U33CRgvQQrrGzI1m0QpvB0KwzzPC/t1Lz8cvbniK04O/SXe5vRf7I+BpLmGDArsvXVCO0KQmzQoyjNEkv7UfmnFzvBv+7RJlsszIjsxgm8aKFwME7oy5xcH7kc6Vum6fzjhHQ7HtsTGlvqkMAUJnVzwiwMf6gbEO6dC8xA4RMideU8fetzAgMVEdc2uqOERrDBa7nB5YQIP5D59QJOOWHPfWjGiuReB7sn6+cEpugBpmTNhigPTd7Q6nr7pgC798Xpjx9yyw0cRghwtNqkdjABAtC+Kzi96ev9f1errnFN+t4Dx6qEqAkDSNx3gdAWk57aKv3AYfUVL7RUpei9z0/6vq3VEjr5ldnmxk8fS9n9dPmmxJ0rptqxNB2eo5fX9uEI68jBkrytPJyC+289gbq7iu5P+qFhW+GSD6vMTyZxumV1a5bRwujtctQEdTk8pdLhzDxawnCsZ5Ov6UfmdAoc2DP7vJ9FJmkvT/nkV7nygCjvyZBsB6t540JChbuvNFbkOJzV2Qqmh7ToR1Kg/FExXM1T2zTtZqMNRulQzIB3zym61YvSUllIlivBu5hOHLtHCO6JUAiD//PIoTXFwRq8ODfzUHxxwsoLSfXt5Lc9BrLmT4qIZkJ755Z9wCBIuemEZ/gZCZHLBpoYPNTg7gqV3fvnfMIIvs8oRKfw+HBVX+LDw8YSNI84VorpbJjoz0wa+aeXxEozQV1n7IpmRvfj60UNWlq0/n/041zne4uqLDYEpSEsb2j7fwnJpR7emOYTLfUh2CZPVmvb5ZVNsHJIZ4Y0IEw2JdE7u44efZpUt0XXMK73EwnMvIUQz1fAN0lIK3ekbDjGtG3kXlPsRAgdQiGoHZFEZc4ce55DoXnd4KJmmxVmJx7eoLKFAxJdWkdL3M9Y3XKxnEnfszuKL0jhOAl514RMJ/Dpzw+HvK/nYeWfpXRYOrZHoNAHStjjf4UB2v5KiZL+LBP6Wse4wW1Mno6B9Qdn0NH4wnZ28Bw6JdFnO+oZVWmxMxuNdWPYu5kD1MD0YoefkPdaQcp7StKAoLYMXYgdLNQHSsqj4XBeHUx5NkBuohKJ0ec76xof0BMp3V2kwVV4qLMKd2esajM8ALC6tseDkGYDj/g6vo0N/i65HGhRbhL67SqWZO1YNCJ0GnLesdCeH4QotQe2LkPM8644kJNdYZTX+qDgzKx3LbmmNEvht5iMN17DKU0vXtbhkoYVH69TwhaOkJvvRI/en4uleXLoaY/iWKkC67yq+W+DwajXGxNO2E5xxxhr2E0Xx/F1LSx+3IJDOiCf5aNS1qlHzMTtWv3ruLtnMY3QLK71E51rVwBRrJiKpz7BbbE0IgaYRx3DDd+1r5FmGg3LO+paV+BBKfqwuEIWL8tc0yq1fq4mfIq1vWcmJLDfbLDIi0qVZq4/EOu5UnyIg7XcXX5wmoD1Kglh/d61sVNSZSlbf8pKkoztp2797ZaOV1Q69dLGBjc2WMLBJAQ9xrWxUHKmlDE73PcVzeAGeVB9B+YUQ1wPSbktt397Z5woTCzqSHg8Li7Ag+6Ejj2mTrI2rd3lJLYcpc1IxEKQV+WubDmqqIV3Lxy+wcmi9NlPluZz3awekYVlJYY5AW5JJb+222OJm30abniBPOtDz7UnFzEeeCYG33Q8euUw1IF33FU+zcmDKnlrnCu2AtN5TPMllg8+SOaRHrh7kfCuK/44xfIlRBnWuOJIyqZrQfLQtzy9zWiyHGBXIkMm3pA7SpDlt0n1v0dkWAf1fvFJKweta0ZShz2Zt3G33Fl3oFBBzXs5HRIenRn7jxAhApF0R/Q+OT9gVIWsq2wBjBHtzX9Bd9UhnLJmm9mv578ISt41PWEMhFA6572s6Q608I+hPxEzxbq1BXQMiXJNT0/RbOd0jAPGtLPorRvBvRhgqJ6MvAhcW1jT/WYuOlhqP3S3g/nhekUJ9+vLmL+zmIP9DRcyJ1ihBOzLubZquCEjHA0WXpPGwW0ug1PCERbIm694WVVcWDZfvf7goYdgrXWzjWtbMfN5Pjb0stL6Hi1owyF9zPlwGAWhzL2uWvRJ9qIb4VxeJaBQWekQKje57mktZHE1G419dlDSP5VjarHk4rdWWQT7fw0Xvcxgms8ihABHn0mbZM4kxJ3of9iwWeLSWRaARNI67jmoOXu+qwk0Ch2+Lt6Ozm8sqWW3cGXU1fvau9rwpYPQNVp5U/scC07923IndDxp6aVYrhtF1Rrmsknu0Ba9jTY7Ljq2+eLURkb6UsbTlvzSYo5ulb+24PRjgYlZBjiXyBRJ1rSq81iYgXdtB2Qw5OXsPE9iYeVeLTIJQWVrfWs+JpylGZgT+7G8RptYA80RNWRMbhX+t5xBCUMZGDeBY3CLbQiD/Oo8XIVB1DR2r4hR0omNhi+IagRz/0ZWe8Rl2OBL/O6H0765Frcxr7Ab4ERPhX+8ZQADMeTTHwhSA+NYV7uQw+rZm4zS2cn1RsbxgybHDWvV613ne5DEktNthQmoyF7WlXHvQqlOOr3+DR345OzE+1LFAGpQl/2JVx7eh8E8chguMNjSVPEKh3nVnq665g/9xTxgBTVj/CBN6X+aCtgdHw5+6NTmu8TYhoU+T0y1lpZ3zW2Vr01Bb1vdY4XschhQPnchVBZYqkpymPxhx596tbdYuOdxek+t0ZvFJZ/1RCh+5Clsno+nmvtLWsz5/vpXHqrLMhEKDc35r0j5n5Ez98fwXeC52afGofITCp855bbGDKlq/xlXFmbmusPTCQdJmICLCpu4e28KymuRvhUipj97H8hZaebyidwCd7Vnc2qjGlv6fFHQgrH5zN6Vw0DGvLeEymoTevufxghutPDyrxig9tP6oWJk3v2O/Hhlv1wB/QU5BM0KQn6KpGCAE/kQQvMMB+AlBlRjTK4e/XRUm8GjGvLYlrLbQ7cAFOwo0j+qiFJ5x3972g+H6kg6/2tbm57kcqBEhZNOys53VoePX7NGQ40dtem9ui6ns2Zi/wMprW8OJEnjdPbftKnbbAXqfyH/IwqFlanjiaXv7UenwWplyxuz9ad5PBQ79WI9CFt6oCM+45x4bUVJY+JLRxK7/2Ji3RBDQAyxDUUrhQG+Au2zcopYmtToDT+afPE6AAJB0m6NaIQB99tuODU07FFMY7T/Nddo5/D7GcPbJA1jqtSpxBCLogpy5bR8p0an5vW1tvkNII9/hOXwNh2FSbHMEBTFK4GMiwpa/dh7bqXUi6f1Z/nKBB/0jOQTQHxLPzb29M3bjgyIggwFo/UlBrstGXsXIvOGxrxc5C5YcS0ivqwFhNGhjfYc3T3PfEW+jdGmnc3b7OFWADAqRjPH15M4VOHQ/QmDoKp2UCU1rarepOfQyGgDE6+h/Ou9TjOUeJJPf4HFSTiKNrak9tpLKXEOSttc1gLsK888XODpLQOgyhGiKiV4KQ4f9JF0YmXak3T1WQel9Ome2lcOGX44TDJP/yLqt8xVdgMSD5N+cu4vjIOXlXSwlmlIIHe1LT59wx9h5G0qyu+vJrEl2GzdskwXLpJjFYwAiwh8dP+iQduob91EKaOD5XOb1ZQXN1BvGZxTcqj3fZZxnAB2bczxOHh1VLXM4Zql20VFoctzUUWwoIJKx3c/kfDdNgFdUGy7DEInCIvfNnYbvD1NjX8fmnIlOC9QNO8Kshl2RNiKi5903ddyoqVNXlC6lo5/P+ZjDcA4LLQsNoXDEG7Cc6Zlj3L0jLHolGu9z2ddbOPQCK70i3fD+kkJ7cICcm31rd/Mgn+E1RBIca7pqc6RhoSEnbQeNjYiwwX1D50JFpw0gkHwIvJizB6dMuGpTJBL4kz8YqS641Zuw/GAKILGm67nMYrsFq0rUMbpHIyJ60Hmg836zRmLeX2Zeb+Xw82rmaUltR9A7EKG/4gF6ogB7B6iwu2DWsZRHuE0DJFbdX8ieZbXAc4yBVk0WJXRPIMrdkndDxwHVzHEMUo3o25J9o8DBUwhpf8ppuNjWgJhZdnNvrxrbTAVEMqSvNnOjwOHb1RilnpZSkdCPoyI8KvphV9acHqYnhvb+HIQKR9ZUgaerOIwT7tFlmeLJ2RqOkrvdM3seUeuL6YBIBvm3Zb3Kc/AdtcbpoZdm/dK5b0qhGSHaSimSHnHhAWghRlCGUOwifRX+s8MjEviHY3q3pqfFVRikPTz9O7I+4jCcd1wCu2PaNX5xnBRQKO3aLs3LCaMCyMBLmbJZ6dMMHtoRcTjGT1f33Orw4mM6IE3bi9JyLf1Dj/uaV3bZ0xjshYBF5kmannAkr3C6v0OPj6YD0rs9/bI0G3pLj5HJeY0Nq177vANCYd70jja9ckwHxP9SxjqBh1GZzOkNhkZ+0e/FWdnXdzNvBUqlx3RAAi9nvMNxxy98PN0+6c10297eIiMnqKYDEnw1vR5jDa8/j3H0oiJscnzPa/h+A/MBeS39MMag+TzIWMXFeqXXlNiZInR4EAO73J9z+NR+qD5JoaDWK3yGJk4HdZgOSHCX6y3Mo5Rns8dqLZCzS3q43na5z5QTA6YD4n/D9bCFQ8ovmLGPYjXgZ6zwaBRetl/p+08NhiiymA5I9y7XxU4r6L4rhRA4+OnBvjMrx7u+Y7HASoxhkrpclGIsmKc7wTC6MP1Kn6aTxEpWmA7I/tfAWpLm0vPWCA2F6DTXlf5fxzvT9VqW28KFr+IxmoU5+OqJ24pM98kytc80HaYJHh688DvOETc4K5WSE7/TSARWOL7pV7078LPtYBlnT3cQEnIRq2C3YooGooikWWCOhacLGPUnJRMJ+ihtap9pZ2lGBZDgbucfOQxfG+GhTLMuTbZCYXxr+uW+nXoCJ8c7sNuZYpObssbuIOQXXOE39uLmYWpHBZCuN52yl8ZIe7AIgQ/DInnE3Rl4w+wDNpLvA+86DmOMVM+NCKGHbVP6y5Vh004xKoBI5vW8YZsCmMfIRvrEAG33WYIdZVNBT9+i3WsACLzreEvgQNVw3Oe1pmd/25iclZzxowaIruiZxNz3jvM6m4UmfQY8PvEeicBj9in9uvofFjf+qQGRAhTbyT7O/muBA9l5hbQUbJkcSP6KEEuUVdD80wMyGKu9e0GYFHKsFnh6x4mHwo7/RIG+FwhYpk4dnQsJ/gVIktLbuyc904LCN3E8mtUV5C73TO2TDpWOyvcvQEYlzOxK/h+nbm70Zo/b5wAAAABJRU5ErkJggg==;" vertex="1" parent="sdSFOSKggI8gM6giwSen-287">
          <mxGeometry x="341.58000000000004" y="260.2" width="26.84" height="29.8" as="geometry" />
        </mxCell>
        <mxCell id="sdSFOSKggI8gM6giwSen-300" value="" style="shape=image;verticalLabelPosition=bottom;labelBackgroundColor=default;verticalAlign=top;aspect=fixed;imageAspect=0;image=data:image/png,iVBORw0KGgoAAAANSUhEUgAAAGQAAABkCAYAAABw4pVUAAAAAXNSR0IArs4c6QAAEO9JREFUeF7tXXmQHFd5/76eHe1K1uELSrYlbB3TK0sGTc9axiQGZDBF2db02IbFwUaGBEIlYFelKlwBEuQQUjY4ISnbRUJx2cSm7A1I+1YSkNhBxqZAmJ0ey8jy9MhSBMioCIe1kiytdqe/6M3O7M70TPd7r/v16ID+b3e++/fO710Ip8n388HXzT527OWlaBgDHmEOgFYAwEIAmA8A6bobEwAwBgAHAPB5Qioanjfa1zdnz+KhHx49HVzFU9HIvWvX9k3MO3g9IX4QgV4HAH2a7DxGgD9EovvThxZsWbJt2zFNcrWJOWUA2XXjajM1adwDCNcBQCq6hwQA0m5VgWBrtcf70KUbn3Gj69THKW25PpUzknbdeMV5qerEFwHgRpUoimzhTnFYQr92Is6ysZpKv//SjT/+jYg9qd9PCiBuwboGCIYA4OykHIskdwaklwBh0Bx2HoskJwZTVwFxC9lbgPABAOiJYbNWVkFtmgSkd5vDpYe1Kg0R1hVAdturr/bA+G7TaEjsn1S7UxPzm6pBl6c8YwcAzeskGIGA5PuVTiImDPDeupw98z2x4fEoEgVk7w3Zsyc83AkAFwaZKR/3dgkI8JMMc9ZUbnrNIppM/TxeKKS4X0wbtGrJptJLUtQRiBIDpGJb9xDAX0ewKZDFB95hkzm1GuHa1t8CwN/r1BUmCwH+KcOcDyWhTzsglWtfO5/Sx3lp5RO2xL7JHuPCld8a/WUdkK8BwLsTU9ZZ8BhOzFqc+fZ2PhHV9mkFpGJnBwnwUW3WBQvaYTJndePncj77cUT8jLxepblKqFgEekeGlfiIUcunDRDXzj0KQINarBII6ZmES5ZudfbNADKwAtHblazuTiA2/odDJiu+Q4d+LYC4trUHAJZIGxSnJwfwTOa0zeRd25qeC8YTL+2Fn3CvyZylkbnrjLEAIRhMVezdfMQxN64hCvxPm8y5wk/v2hYfza1UkFONl6LpqOlwpnf52Tg0xGVH+iID8pP3D6TnH/AOA8CsTpqTKKU1mUQfNkdK9/h1lvPZNYj4Y8ko7AcAXqtfL0mvQnZ8bKEx9/IvjvLMs/IXCZDvrV3bc9H8gy8rTfSUTWswtLbd5ME1/ZudxzuJc23Lk8iJeRnm9FRsi5fiSP5z3YICN7F/bMGcq7dtm1R1W9kgAsCKbR0BgNktyrRWiZBREBpXmsOj2zs5WrGz9xHgB8OCQERXmH2ZYmV8t3KwFIN7NMOcs1Aiz9ksVxmQsm39EqcWhvR+BLsAcVFQ+qOhDMm7LDPyDO8v2r7aOsr8g2ELUb8wmbN45+DKuenx3kN6HWiXRgAH+plzgYoeJUBc29oGAG9UUaBAe8RkztyynX0EAQOHkOnJnguWbH36QJBc17Z+BgCLOzUrHlRXrGA7ys/b/fMMmBN7QjfdKIS3Dk+YzFkrGwdpQFw7+2EA/KysYHU6ApOVavY0B9UvBycO9WW+vXs8SH4lb72REHjB8X8TJnNqA5D6gOS4uo1ROegjJit9ToZbCpDn869ZYmCKj0qifZL9SybnpHADeGEl2GSO0ObmOUnDYCK4q3/E+ZvG351oojknx+VRdemKkR17RdRC5+ollneAMZZVRWZM/Z5hjtHoBN28tR0Q/PONjpNCv/SKbW0lgGub/48TsxY0551c2+JD9rPkLNNCVTWZI1wHEgLi2tZ/A8A1Wkxqa39a11qbS/+uG7KXpDxsKVGEsK9/2LlEZMue66yLJ3vgfzldvXK2AVkuWA8iwXqRLM2/P2Yy5y1hMkMBKa+zVqMBJWWjJJso32D+mMmclqG0f16BAP+cYY5USr+Vl7abrHRlsx/NoCn7F4OBPMj2b3aeCRIRCohrW7zja+x5imGGmJUAvtPPnJZmpmxbP0CAP2pwN0ZJYmkAFdt6igD+eKqW4PoMK/6Hn8+1rcCmWLZMydjio5keXHTiDQSkbOc2INCnIiiMxOIBXbWClX7QzOxP58t06A3+ip29lQBrIEz0Hj9v1dDO37b1NYXcZ4jo45EMFs/WA8US4J39rLhBGhDaAEalWEstRPzE6w3+EtjcoTeU1peAf1f/e7/JnEWyBj1308AFPZPei5w+CMj4fspaM0PX8LsxovRL6FhD3Lz1ECDcIkrYqJsTxEF7TFZa5v+1nqbh+SlAhMHMsPOfsjppcDBVT49MmswJbHYrtnUvAdwuK1eZLqjtI3jYHHFuFQLS5Iicbg2NrUzCUKW5ahjuFiwiEI/MZJKSsdxsFHvf7r1M7/Ief6q+rYa4tvWFE5uV/0IODT1UYcF2besoAH7TZMV3qWo7sfmBN7ubTOa8LYy3ub9R1RGT/gsmcz7QLKMTIMJdmJGMCC5i3zeZE5gfc23r/zK9yxdGWfRxbesIIn4yM1z8vMhm17b4xuteEZ3u3/2FsQWQSsF6O01t8RQm/LUZVu1ZZm55OjAtUynk3poZLvJNdsqfa1v7kOC2zIjzhIi5nLeuRYStIjrh74ptm79vbAHEtS0+NDxHqNRHoGhDM7dUOkHVnuk+xLa2pTzjtmWbR3kGWPiFzUuEzNEJXjKZMx3zaUBezA/MOYweX3jq2kcAX+5nzvuSUujmrX+d6Bv/xKqh53jeSvhV7OynTmw57Tg/EDLXCaIUzrlknHXhyChfgZ1ZwnRti+/84zsAu/ZVU+nzk9z6Xy7kbn7x4Pxvyi6l7hxcOSs93huY2k8wMJ82mfN3rYDkrSOAMCdBpX7RUpnbOPbwBOWKTaV9Ksuorp0bE61axrEpgLe2ODcNSH3TQqRdEmrGzczgO+Wu1GSJqflMnK+viClnKMqF3P1I1DIUVeH308o2YfvHFqR5TZ5aocvn1gHSSKhiWcmS1nfKXUmyJkoWOcMd1yrCvDlS3NxYMv1+QnuUAs1slIi4fujmP4n9yJMmc97QAKRrafZ6AMlkjqE7mLrkJbe8G5p0raXlsTmBp8uhqa1IoUstvzOZc64+fXolteS2ak210B8tBtQy3uV1qy9Cw/iFFonSQtAxWTEnTd5lQr4whwDp+DkkNSDJ8xZh/SDmQ1p9Fg4AcIvJiuu06tQojOfAALo6BZiyHulWvi30AQK4LYo/wrgHCqWNJivdFEVnN3j8O1Ki+6lmLQI8iBG28TdpUauSTYyhGV41N/RTdy/z2xa/5zgg/HzHgim3mggCi0VkEJojV9tjqz+UeiTKLFjF0hRc5Q5yQPgMPWADly/4+upuolneOMFKZtQpbdEkB0TmTIW0RFnCoEV+Wf6k6HYX1iz2aFIqXR/dhsBWhjgg8Ud3ESwLW0ePIE4bi1vIfQ6IEjiDLtfUnzRAAOB5kzmXaoukJkGubfF1idbDSDFlq7T02gFRUX6q5bPq10X9Omb8Y7FrB0TJGoJ/N0ecru5wCbPPta2uJ1n99uju1J8EgMtVqvypUksinqrii3o/AoI3iwuiVB9S69S1nf0gxNv7h4v3c+P2Xrdm4UTPxM0A+OcAwPsKI2AnZMdz52IH9VK4dvYFAAw7+M8vNXscPPyah0eeWMHKtTOKZdv6EwT4hiZrqhh1yTKgr3jZZE7HQzB8VXLR3INrPIM+gID5mclobUK6zmSlLZqcUhZTLli3IQG/WG3qI/gtGMQQ4YG+9OztYTea8n1jAHC+stKODHSI1xB++WNGImUupTPlGRfLbrvhm6knPXgLEa4/Ol595+r/2tHVXS/coZ2Dq85NH5/1KBr01VnHq1sv3vJsY3O30F/fZvAO9FLNVDNfhdcQrZfGIICbYU6/0JszgMC1s08C4FXBrqgCgkNYyVvvJYQv6YwP9lQXZ761o8trLDo9EMtSOusuORdAgvdh2wlbSWaByb82mfMKsVunL4VbyD0LRJfp9ICf1MXEDq0Q/ak5UuI3vZ1xX2XdQI4Mb1S3Y7X8Hheqc+jbbKTokL9uh7olrzleehqUmuW1DHgdkFwRgCzdDkW560O3DbrlVWzrcQJ4k265AFP7DGqAJHlgBQHuyzDnDv0OdF9iJW+tJ4QHk9CMQO/KsNJDNUAkbtFps0GlqiLBWpkzGkk4qktm7bGAqlHWJa9VDkF67OzZ/LWG6c1Trm3xXd8db4fTYURvdfJclUmXDp26ZNQmj+Ozkryg/7jJnNrprWZAunG2cGoxjG9H52uluiKWvBxtpga0LP9mMucvWwDZd/2rzhlPndd0uF5ulqnSdCUft2YNYvtPju3tdjW3Hi3IJ7Fa1k0QtARYixAlr4+azJk+l9MCSNnO3Y5A94rFiUtfrFFAmAHdD5g4HDEoCPCOfla8ryGiBZA4W2Ak4sQAcVMM208aq0d0gwFgRzEgNC4IkBmeuSOspQ9pKCvb1iYEKERRHsYTduGKbl265e2ycxtSCVzEQwDD/cy5odnettEDf57u6Pixl9XXR8KbsdMZkKRuRprd2zfHv/jVcTiXxO2jfwDEV28JtpkjztX+2twRkCgzd1EzccYAItFZimLBf0+PLajNzKUA4USubak/khJi7BkDiEy0xTQPmMx5TyeywBlofcTVfj96xBLyB0Cmw08ZVlv36LiFNzQl4NrZ6wFwsxhwMcXvHyBBg5zwHTbCHI1rr94FYPCHgGN9HBCTFe+MJeQkMbt5awMi1K6+6PxJT5SF+5mFgMjf8iBtVPSwKjeXXbBJwRuZXZpCQLi+ciH3eiTi+17PzK8D0MrYCyJDiG/oHy7yrbahnxQg9VHXlwHgz0QCT4vfdUdb7PRXTOa8V0ymuCTRePwrWX+wG+96NK3F8OdaGwMe6fKp0pcoPRamZEF9KMwPtOh6cN7v2PTrnTKlSQeNa1u8ACT1qNmxDHPmqFwPpQQID0Dl2uW9lJ7HQYlwV4mwk+36HSgJnrH0cOLQnLC3TjoVKGVAuBDxJmNOJQx+xwLeKeGmoyZ0kjGTSK3/qrEtTht0TpRHjCMBUht55QfOR/R+JbplRjWYiPiPmeHiJ1T5otC7+ew/AKJuXURkvLJ/ZDTS0bjIgPAAvDA4sKA67vF1ePXmK7g0dq3ZSqC58lK9xrnLhkYPRikgnCcWIFxA/T0nfqZC52s13zCZc0tUp2T4XNt6+ERFf6cMbVBb70tGHRlbaJwT9UHJho7YgDQEubb1U0BY1TllFuB2WHYY6fr+4VL8i407qC4Xstchoc4TWztN5mjZCa8NEO63a2fvBsCPBJY6xU4zicsFyuusN6MBj0WtGe189FmTlT6qS55WQGrD4oK1kgienelXYk66EO42h52P6XDYLVh3AYGu4HmI8OrMsPOcDtu0N1nNRtUmkHnrfwBB+kHFcKfwEKTgtebGYqQ3090bc5dCFba33cerWGOnbSTYlhlx3qQy4ZMFTXsNaVZcv3KVv+Csac8wHkKgvzq40Pi6qPPkg40FB7z1BPgvGi9GPk4eXBH2qJds4IPoEgWkobSStz5KCHfFNdbHz1cz+a09zxJi7TwjEvEnkV4NAK/S/e4iEnwsM+LcrdmHNnFdAYRr5c3Ybjt778xrzjMz+cCWI2qTojFqCHT/cla6I4nmKWg4rdF8sah6gvKTJyj5KwTqE0qxCh0UvMO+c/mw8+luAZFopy4bkUo+dyWh91DwlRbR8mGy+jsMYfcgGbdmRoo/ii4jHmfXmqwwM2sngUetm2Gqn+Htfze/nwHvHwacR1Qv7k/CyFMCEL9jL6zLZqopvAMIbgaAV4Y7rlyLfgUIj6SqdO+yzaVKEkGNI/OUBMTvEB/Czj0wsTRFqavIwKuQ6DICuAgA5tWH1A0/ODr8HvtDCLAfEX9KHj1VxepThxem94iGynECqYv3/wFy0Eg8srXmiQAAAABJRU5ErkJggg==;" vertex="1" parent="sdSFOSKggI8gM6giwSen-287">
          <mxGeometry x="271.1" y="260.2" width="29.8" height="29.8" as="geometry" />
        </mxCell>
        <mxCell id="sdSFOSKggI8gM6giwSen-301" value="" style="aspect=fixed;sketch=0;html=1;dashed=0;whitespace=wrap;verticalLabelPosition=bottom;verticalAlign=top;fillColor=#2875E2;strokeColor=#ffffff;points=[[0.005,0.63,0],[0.1,0.2,0],[0.9,0.2,0],[0.5,0,0],[0.995,0.63,0],[0.72,0.99,0],[0.5,1,0],[0.28,0.99,0]];shape=mxgraph.kubernetes.icon2;kubernetesLabel=1;prIcon=svc" vertex="1" parent="sdSFOSKggI8gM6giwSen-287">
          <mxGeometry x="260" y="126" width="50" height="48" as="geometry" />
        </mxCell>
        <mxCell id="sdSFOSKggI8gM6giwSen-302" value="" style="aspect=fixed;sketch=0;html=1;dashed=0;whitespace=wrap;verticalLabelPosition=bottom;verticalAlign=top;fillColor=#2875E2;strokeColor=#ffffff;points=[[0.005,0.63,0],[0.1,0.2,0],[0.9,0.2,0],[0.5,0,0],[0.995,0.63,0],[0.72,0.99,0],[0.5,1,0],[0.28,0.99,0]];shape=mxgraph.kubernetes.icon2;kubernetesLabel=1;prIcon=svc" vertex="1" parent="sdSFOSKggI8gM6giwSen-287">
          <mxGeometry x="330" y="126" width="50" height="48" as="geometry" />
        </mxCell>
        <mxCell id="sdSFOSKggI8gM6giwSen-303" value="" style="aspect=fixed;sketch=0;html=1;dashed=0;whitespace=wrap;verticalLabelPosition=bottom;verticalAlign=top;fillColor=#2875E2;strokeColor=#ffffff;points=[[0.005,0.63,0],[0.1,0.2,0],[0.9,0.2,0],[0.5,0,0],[0.995,0.63,0],[0.72,0.99,0],[0.5,1,0],[0.28,0.99,0]];shape=mxgraph.kubernetes.icon2;kubernetesLabel=1;prIcon=ing" vertex="1" parent="sdSFOSKggI8gM6giwSen-287">
          <mxGeometry x="260" y="56" width="50" height="48" as="geometry" />
        </mxCell>
        <mxCell id="sdSFOSKggI8gM6giwSen-304" value="" style="aspect=fixed;sketch=0;html=1;dashed=0;whitespace=wrap;verticalLabelPosition=bottom;verticalAlign=top;fillColor=#2875E2;strokeColor=#ffffff;points=[[0.005,0.63,0],[0.1,0.2,0],[0.9,0.2,0],[0.5,0,0],[0.995,0.63,0],[0.72,0.99,0],[0.5,1,0],[0.28,0.99,0]];shape=mxgraph.kubernetes.icon2;kubernetesLabel=1;prIcon=ing" vertex="1" parent="sdSFOSKggI8gM6giwSen-287">
          <mxGeometry x="330" y="56" width="50" height="48" as="geometry" />
        </mxCell>
        <mxCell id="sdSFOSKggI8gM6giwSen-305" style="edgeStyle=orthogonalEdgeStyle;rounded=0;orthogonalLoop=1;jettySize=auto;html=1;exitX=0.995;exitY=0.63;exitDx=0;exitDy=0;exitPerimeter=0;entryX=0.005;entryY=0.63;entryDx=0;entryDy=0;entryPerimeter=0;" edge="1" parent="sdSFOSKggI8gM6giwSen-287" source="sdSFOSKggI8gM6giwSen-298" target="sdSFOSKggI8gM6giwSen-297">
          <mxGeometry relative="1" as="geometry">
            <Array as="points">
              <mxPoint x="110" y="222" />
              <mxPoint x="110" y="298" />
              <mxPoint x="240" y="298" />
              <mxPoint x="240" y="222" />
            </Array>
          </mxGeometry>
        </mxCell>
        <mxCell id="sdSFOSKggI8gM6giwSen-306" value="" style="aspect=fixed;sketch=0;html=1;dashed=0;whitespace=wrap;verticalLabelPosition=bottom;verticalAlign=top;fillColor=#2875E2;strokeColor=#ffffff;points=[[0.005,0.63,0],[0.1,0.2,0],[0.9,0.2,0],[0.5,0,0],[0.995,0.63,0],[0.72,0.99,0],[0.5,1,0],[0.28,0.99,0]];shape=mxgraph.kubernetes.icon2;kubernetesLabel=1;prIcon=svc" vertex="1" parent="sdSFOSKggI8gM6giwSen-287">
          <mxGeometry x="150" y="126" width="50" height="48" as="geometry" />
        </mxCell>
        <mxCell id="sdSFOSKggI8gM6giwSen-307" value="" style="aspect=fixed;sketch=0;html=1;dashed=0;whitespace=wrap;verticalLabelPosition=bottom;verticalAlign=top;fillColor=#2875E2;strokeColor=#ffffff;points=[[0.005,0.63,0],[0.1,0.2,0],[0.9,0.2,0],[0.5,0,0],[0.995,0.63,0],[0.72,0.99,0],[0.5,1,0],[0.28,0.99,0]];shape=mxgraph.kubernetes.icon2;kubernetesLabel=1;prIcon=ing" vertex="1" parent="sdSFOSKggI8gM6giwSen-287">
          <mxGeometry x="150" y="56" width="50" height="48" as="geometry" />
        </mxCell>
        <mxCell id="sdSFOSKggI8gM6giwSen-308" value="" style="aspect=fixed;sketch=0;html=1;dashed=0;whitespace=wrap;verticalLabelPosition=bottom;verticalAlign=top;fillColor=#2875E2;strokeColor=#ffffff;points=[[0.005,0.63,0],[0.1,0.2,0],[0.9,0.2,0],[0.5,0,0],[0.995,0.63,0],[0.72,0.99,0],[0.5,1,0],[0.28,0.99,0]];shape=mxgraph.kubernetes.icon2;kubernetesLabel=1;prIcon=svc" vertex="1" parent="sdSFOSKggI8gM6giwSen-287">
          <mxGeometry x="34" y="126" width="50" height="48" as="geometry" />
        </mxCell>
        <mxCell id="sdSFOSKggI8gM6giwSen-309" value="" style="aspect=fixed;sketch=0;html=1;dashed=0;whitespace=wrap;verticalLabelPosition=bottom;verticalAlign=top;fillColor=#2875E2;strokeColor=#ffffff;points=[[0.005,0.63,0],[0.1,0.2,0],[0.9,0.2,0],[0.5,0,0],[0.995,0.63,0],[0.72,0.99,0],[0.5,1,0],[0.28,0.99,0]];shape=mxgraph.kubernetes.icon2;kubernetesLabel=1;prIcon=ing" vertex="1" parent="sdSFOSKggI8gM6giwSen-287">
          <mxGeometry x="34" y="56" width="50" height="48" as="geometry" />
        </mxCell>
        <mxCell id="sdSFOSKggI8gM6giwSen-310" style="edgeStyle=orthogonalEdgeStyle;rounded=0;orthogonalLoop=1;jettySize=auto;html=1;entryX=0.5;entryY=1;entryDx=0;entryDy=0;entryPerimeter=0;" edge="1" parent="sdSFOSKggI8gM6giwSen-287" source="sdSFOSKggI8gM6giwSen-298" target="sdSFOSKggI8gM6giwSen-308">
          <mxGeometry relative="1" as="geometry" />
        </mxCell>
        <mxCell id="sdSFOSKggI8gM6giwSen-311" style="edgeStyle=orthogonalEdgeStyle;rounded=0;orthogonalLoop=1;jettySize=auto;html=1;entryX=0.5;entryY=1;entryDx=0;entryDy=0;entryPerimeter=0;" edge="1" parent="sdSFOSKggI8gM6giwSen-287" source="sdSFOSKggI8gM6giwSen-308" target="sdSFOSKggI8gM6giwSen-309">
          <mxGeometry relative="1" as="geometry" />
        </mxCell>
        <mxCell id="sdSFOSKggI8gM6giwSen-312" style="edgeStyle=orthogonalEdgeStyle;rounded=0;orthogonalLoop=1;jettySize=auto;html=1;entryX=0.5;entryY=1;entryDx=0;entryDy=0;entryPerimeter=0;" edge="1" parent="sdSFOSKggI8gM6giwSen-287" source="sdSFOSKggI8gM6giwSen-306" target="sdSFOSKggI8gM6giwSen-307">
          <mxGeometry relative="1" as="geometry" />
        </mxCell>
        <mxCell id="sdSFOSKggI8gM6giwSen-313" style="edgeStyle=orthogonalEdgeStyle;rounded=0;orthogonalLoop=1;jettySize=auto;html=1;entryX=0.5;entryY=1;entryDx=0;entryDy=0;entryPerimeter=0;" edge="1" parent="sdSFOSKggI8gM6giwSen-287" source="sdSFOSKggI8gM6giwSen-294" target="sdSFOSKggI8gM6giwSen-306">
          <mxGeometry relative="1" as="geometry" />
        </mxCell>
        <mxCell id="sdSFOSKggI8gM6giwSen-314" style="edgeStyle=orthogonalEdgeStyle;rounded=0;orthogonalLoop=1;jettySize=auto;html=1;entryX=0.5;entryY=1;entryDx=0;entryDy=0;entryPerimeter=0;" edge="1" parent="sdSFOSKggI8gM6giwSen-287" source="sdSFOSKggI8gM6giwSen-297" target="sdSFOSKggI8gM6giwSen-301">
          <mxGeometry relative="1" as="geometry" />
        </mxCell>
        <mxCell id="sdSFOSKggI8gM6giwSen-315" style="edgeStyle=orthogonalEdgeStyle;rounded=0;orthogonalLoop=1;jettySize=auto;html=1;entryX=0.5;entryY=1;entryDx=0;entryDy=0;entryPerimeter=0;" edge="1" parent="sdSFOSKggI8gM6giwSen-287" source="sdSFOSKggI8gM6giwSen-301" target="sdSFOSKggI8gM6giwSen-303">
          <mxGeometry relative="1" as="geometry" />
        </mxCell>
        <mxCell id="sdSFOSKggI8gM6giwSen-316" style="edgeStyle=orthogonalEdgeStyle;rounded=0;orthogonalLoop=1;jettySize=auto;html=1;entryX=0.5;entryY=1;entryDx=0;entryDy=0;entryPerimeter=0;" edge="1" parent="sdSFOSKggI8gM6giwSen-287" source="sdSFOSKggI8gM6giwSen-295" target="sdSFOSKggI8gM6giwSen-302">
          <mxGeometry relative="1" as="geometry" />
        </mxCell>
        <mxCell id="sdSFOSKggI8gM6giwSen-317" style="edgeStyle=orthogonalEdgeStyle;rounded=0;orthogonalLoop=1;jettySize=auto;html=1;entryX=0.5;entryY=1;entryDx=0;entryDy=0;entryPerimeter=0;" edge="1" parent="sdSFOSKggI8gM6giwSen-287" source="sdSFOSKggI8gM6giwSen-302" target="sdSFOSKggI8gM6giwSen-304">
          <mxGeometry relative="1" as="geometry" />
        </mxCell>
        <mxCell id="sdSFOSKggI8gM6giwSen-318" value="" style="shape=image;verticalLabelPosition=bottom;labelBackgroundColor=default;verticalAlign=top;aspect=fixed;imageAspect=0;image=data:image/png,iVBORw0KGgoAAAANSUhEUgAAAGQAAABdCAYAAABTl8MxAAAAAXNSR0IArs4c6QAADaBJREFUeF7tXWt0VNUV/s488oYESQDz4CEoBmqriEhmQkIAIYBLLaJSxUJbXa6+bIUkvqpmtUstJLooXbZV29XFKlakWrTKIwk1PJKAGLFqQVDBEJJAIBIw5DWZmVPPnUyY15177p17b+5Qzr9k9tln7/3tvc85+95zLkEUt7I63A2KtQAu61fjBIB7i+14N1rVItEo+KoaTDQBO0AwSkT+w9SKmSXTcDLa9IsqQErrkZDQi38RYDaPoSnwSpcDy0sL4OShNwJNVABCKUh5HZ4E8BQATpkZGWU2dgH4cbEdLxvB4FIycConxUa738tqMQvA2wASIhzlK5gxq3g6Po6Qj6bdDQvImr0Y2efCTgATVbZAnZui8OFcdKjMVxV2hgOktBqWxBj8FcBSQUOWdQQpB1IQv+IDfUN0ISgrysHDhHjymlGaoQApr8F9lOBPAMzcBgpndGkmvX0Eix+z4R1pUn0oDAHI83W4xkWFvUOqPmr7Rp4Qew3EibyV+Tiu2/giAw0qIC9UI6krBlsB5EZqiMgCpX90ik2dw7CkdDIckcqjtP+gAEIpJeV15FkAJcLkoIo1lZogqJ+bEKwosuF3qnGUwUh3QFbXYAEheANAXJCcxgLmnJtg7sM27JNhz4hJdQNk1V5kEhd2EuCKAalVAUDB6kvSbH489zvdmPPoDLRLdlOBQHNASg8gJvEsXgGw2E9eVcBQwQIiLEKI94dOG35eSuDWblTuMoQyEcpq8DMQIReblHAwIGZ9oFhanIuNSvTh6aNJhJTvxvXUhO0AUow9T4RJd+G9ocVMkL/Chi94jCyHRlVAfluPZHMvqgDcIEeIwaFVZe6p6HTgttIC9KilgyqAlFKYEurwPAF+oZZg4fgYLJUxcZ4osuEZNcowEQNSXoNFlOBVADF6gGHYMQg6KbCwxCYURBU3xYCU7cQ4WITBsxSPrkFHyeiRJIhQKIKDfU7MfCwPp5Vwkg3I2i2IdSTjdQrcrGRA7j5qGU4tPtyC9xMSrBvThB/deafwgIy7yQKkvAYPUYLn+J/acctxkRISF0DvL7YLjxO4GjcgZbV4CcD9XFwvGiJVVmKsmvxakR1LeMzCBcjqWlxLgA95GBqFRtNMpYA5NeOqkun4XMo+XICU1WK3GiVyKWE8v6vjlQIrBYbjk1E+FXsDpsTe/xQ0THdeQJoBpMsX41IPHwvUF9ulN8y8gLQAuFxv8xrIwdVQPfoBkWOFKADvIgZEFetHPlfJFOMiBkRO6AwWbTBaGgIi0zUGyyYXxo08GlTQQUNAVJBusFkcefVepN7wHpInfBZeFFnOJwa88H8tATGEx0WE6RevLAN1m2CKcSBjVhXi0k5FxI+js5aASA0fHjAep+OhkZIi3N7QC4iXR9zwNmQtYO90a9YGExA5Sg1OtAUCQkxuTLhnnRzB5dJGCyAceomFSwRhpDcg3zyuqC+J9p06B1SKSfQGBMBFFCGKzS7e0QuIN2FeSlkaGFkOS60iJEwW1TBCIsjdoY2m/8QuBoikapIEom6hISBhXPHMf78NS1w3hk6QfBYj6dDDEyZjUupS1B5/Am4a+UHarpPpiB/RCmJyQTxC+JyjszkTJosT8SO5T15rA4iYg3SdSEdL9WxQl0UwtDm2FxlztyI2Rf47ylZzEm7P3oLMoTMEXpS6UHnkAXxy6i+ev2U+1O89MxxNVYVwOzxvKl12zUdgjgN64ekD7xzSdz4JTZUL4OxMFHhZh3yNjHlbYY3vknIwbQAJHNXZlYimyvno6xgSUiC2A86YXQmTtU9KYBAQ5I55FjdmeI6NBLbuvja8dmAW2ro+keTFCBgAzdvnoecr6YNZUoBQlxkndhWgsyn0W09JYxowKncnGB+Rpi0grOxwclcBzh8fHTB+aP8dNvkTpE75wHt2PEjmccMW4taJr8NiCj42Ekjc3FGHNw4WwuESOUhLCU7X34izh7K5gGNEooBQoP3gNWjbP1WaF6FIu34fUrIPhqLVDhAWFV/+8w6/kJeWFiBmF8Z/bz0I8fei5dceQGrCJB4WfjSbPr0FR9r9yx09bWloqlgg1KnktFCAsPR7dOMSuJ1WOaxgsjow/q6/A4Q5p6dpujHsPj0STdsWhBFSPMuPX7I+KH2ttLlAJE8sUI8D+GSy/SfW4t0v/V8nPrFrJs4fGyfLgALLEKUTx9fJOPbWIlm8vMTM8UwWvzStXYSIAZKU1YhRedVw91nRXDUfve3DgpQZAMQHs9CAUNQ0PomPW1/EXZN3YHiICAoNSAHOHxsbNG5c6mlkzKlA24fX49zh4FQWKkLEADHH9iBz7jZhcdFcOR+u3thgPQcbkJTsA0ib6n8cr/Gd24JA4YkQN+3D2r0pcNILK5fstKVYeOXf/BTnBSTjpm1IGMVubvKs0Ny9sTi68W4/XmKANL61yO9mAcYnfdZ2NG2fB0tcF0bl7UBzVSG6Wy9cTJQ0ugGX51cHgqRvhKROqQebuH1bU8VCdJ8a4fc/HkCcrh6seS/er19a4nVY9p39igAZt3gDLPHdfn0/X79cctk7ECE+W5MhY48ifmQrTr2XI/DLmr8Z7QcnC1FpjutBVuFmYSns2/qTQRQD4u7Bmr0qAnLHBmGz6tukAGFG7AsxhzBAkiceEpb6LKrG3vqGsAqzDjmHlKs/DTffGBgQNtl5J2cKrLQHT+qbP1uKT9vYWVHAYooXNopZyTMVRUjS6GMYNWPHwB6BeXTbB9O4UlbgpM5255nztiBmWDuIsIq6sJKSmP0NDEjAJlFslXXe0YKPWl+CLespYdMY2ILnEALPKit4UmdL0NTrPhB26N4du8CvPx3JmdRZt9jhbcicUyE8AuZs+gIyYnodkq887CdbS/WcoJ1tyDkkxwlC+O+b8Q6yt+kZ1DQ+7jfmyd356Gi4cBSe01ghN4Z9HUPR8ObtF1gElLnYn0OvOoQR0/b27znC1sH0AYR51kj7brDcGqp99dF1OPPxtQM/hQIkwToSS761A5fFX81pP4q6479G3fHSIHrqtAj5nadc4u3MyjpsScyWxoGt4+h4tNbNAPWpewXSCDbIqcGQK47oNYeQFoAOvNvr3YekTDyEtBu83iEuC9vxssIjK0D6ARKwf8xKLsCi7HdgNYlfHnfs7L+x6dAtcLrDF/MCC4ohpWNpbMr7GDbpQHhHoASn9uXg3Gfh71JLn1WFxIwmseqndhHCyhKs2MZTMPTVlJVcLAmdElFAMD3zceSO/rXfzrzTcRIbDuSjvVviPaoA7ucOX41T708PKvMkZjXi8rzqcMXAIDldjlg0V80DA9u3sRJ8esF2KXtoBwhnXpFJ5p9/LSQet2ZvwujkAmz9fDkOtbGDvsoac6DW2jx0NIyDNek8MudugSVRyjHEx2LpkFWRzTG9yLipAtYkrtsCow0QZcYW7xUwwbJSGDXJigiVJdIZELlPjVTWNgrY6QxIFFhENRGVOd8lQFQDIEJGmteyIpRP5+58Ly3oIFT0RIhvBlCWDXQwZ+RD6ASIBu/dhtNdXcB8o0fzSNIJkLCeo7mSkfutfhyMAIh+2hp9JE1fcjC68pLyBeQ9ddOg6OiqRojfTQ46KSBu10EXQFEqVg+Q1bXYQ4Dpkp53iSBcJWddsQ3LpUzEdbXGqhoUmEj0fmhLygiSv6sQkRYX0h/Kg+fVlzCNCxDWX4sbgVTQU0q/8L/rtwH6VbEdT/MIyw2IAEoNikGwSubL5zxyeGjkIiSXnl8StShdhGJZUa5wszdXkwUI46jNnYuKJkkuBdUlkiEnwbrOXtwn9wtxsgHxKvjsHoy1uLHLaLeSqguAgsAlOAiKgmI7FN1EoBgQr+JldfguKDb8X93bGypVEnTChZuLZ2BHJE4RMSBscHazdWItngPBL3mEGazUr9G47H2UJ1fa8LQhbrb2BYDd/W7pRSWlmMb7+UceAA1MU2kmuG2FDf7vqUYgsCoREjj+6j2YQtzC1xGCzyOoecllBIqLdhUrq/j//wQ1I5/nllG5ImoCiFeI8lr8hAK/V/r9ELnK6EDPTuB8v9guzJmaNE0BYRK/WA/r1w6sB8WdvBrIzfVy6Xnl8KOjeHFMC34q9+pwuWNpDohXoFU1SDcR4fL+Cex/uhhRrjVC0//HTDB7hQ1n1GEXnotugAyksTrMoxRvhvxKmx4a84/BTt0UFtuxh79L5JS6AyJEh+dz3L8B8FhQGWbwQ4ctY4uL7MJHB3RvgwKIV8uyCiQiCZsB5MvXXEYZg5c5wduxZ3HHgwvQy9tFbbpBBWQgje3CpG+WkeyUpOdAooIoUdDF15aNThPyH81Bg9oGlsvPEIAMAFODZZTgz+wUW1hFIrS+D28HIbiryCbMaYZohgKEWWTjRpiPZeBlAD/wWEiD1OSJwjWddqzU+kORclE2HCBeBZ7ZhbQYM6opMNlXqUiDgwD7nLGY+8hUnJNrLD3oDQvIQBqrRR6FMPEnKTaIB8V2asKckhz4H3ZXzFSbjoYHRMgubJlci0dAhMegcmV2U4IHS2x4QRsTqstVrnLqji6TW2k14hKt2ASCQtGuPjmNAP8YEot7HpgK6cu6ZMqiFXlUAeI1wupajCcQyjAZIoY50v+tWvY+WVS1qATEZ35ZTIE/AvCewjxJCX5YYsO2qELBR9j/AQ28N6n/sni3AAAAAElFTkSuQmCC;" vertex="1" parent="sdSFOSKggI8gM6giwSen-287">
          <mxGeometry x="156.99" y="260.2" width="36.02" height="33.5" as="geometry" />
        </mxCell>
        <mxCell id="sdSFOSKggI8gM6giwSen-319" value="" style="shape=image;verticalLabelPosition=bottom;labelBackgroundColor=default;verticalAlign=top;aspect=fixed;imageAspect=0;image=data:image/png,iVBORw0KGgoAAAANSUhEUgAAAGQAAABkCAYAAABw4pVUAAAAAXNSR0IArs4c6QAAIABJREFUeF7VXQVcVMv3/y5INyKoYCIWdovdiondiorY3d3d3c17is8O7Hh2PxsUEQMRkO7a/f9mLne5u3t3995l8b3/fD5+PrJ35syZcybOnBoJ/uNlwQKZQTuvLyXsbC1am5uaehqZGFUzKlDA0cDAwERiIJFIlPCXAZBJZTKpVJqenZUVmZqZ9TItJfVCbFzylYBTJb4sWCCR/peHrDyefx3Xixc/mpSqYNPbztZqmpmpSQWJKs3zgKMMMhlkqenpgbGxiSs/v48/6unplp4HgHpv+p9gyJ1Xr+yKO5VYZ2NlOcDAwMBQ76PUAFAqlWbHJyYdDvv0fbKHh3vM7+ybr69/jSEymUzy6UfM5IK2tssMDQ2MBBGCYEv2pHwq2dnSzOi4+NmuRe3WSCSSfOxJ/QB+O0POPX1qXr14+dPW1hat8omuegGbkJR87UVoYOeOtWql6AWgQCC/jSGEEbVKVfzbwsKspkDc/v1qEiA5OfX505B3jX4XY/KdIWRrCvuVdNrayrLT76Mw2W30O7T4xOTzLg4WnfJ7K9Mv1koUD/wS0b+ok+Ph38cIkT3pcCaFR0QOLFfCKd/GlC8M8X/71ripS5nPpibGRUWSiFNd3CzXgbY6o5aenhF+83twyZ7u7hk6A1HTUO8MeRvys1Oxok5n9I3ofxHet/CILu6lCut1rHplyPeohIvWVlbt/m3i5cdqUQczMTH5knMhS72NWS8MIeqNMZMzo42NjGzzygzNxBS3janHRV9wmB4yMjPjtqw1KqgPtUyeGXLx4UdrjyqusQYGEoO8MuP/c3upVCZ98u6zfatarvF5GUeeGPLw5UeXiuXKfMsLAvK2+bHPaEAsMzMLsXHxiIj6heiYOKRnyWAokcLezg5OhezhUNAOJsbGihAE4Pg65HPJBhVLf9GVJjoz5Nnb4DJurq4fhXQsk8mQkpqKmNgExCcmIzMzA6amJrC1toKNtSXMTE2hiw4x6lcMXrwJxPsPIQiP+IWMjAxYWlnBsaAtShYrirKuJVDMuTCMjYzw94NnOOh/AW8/hCIzK1sI2rSOsVEBNKhdGWOH9kTpEsUEtQv5HFKuWgXXD4IqK1XSiSGPXwcXK+/m+lVTh6/eBmH19iN4GxQKqUyYWsjGygIetSqhT5fWqFTBDQYGirsgYaz/mcvYsv8EEpNTdRmvQhujAoawtDCDlYU5jIyNkZ2VhYSkJCQlpyEjM0sVvgRoUrcqVswZSyeRpqLrShHNEHJmNKxWhnefJARbsXk/jp29oYKroaEBLMxMYW1lCQmkyMqWISk5BSmp6ciWqpooCGJGRgXg1bYRRnn3xOpth3D+2gMFuIYGBnAuXBDlXIvTbcbIyBixcXEI+/kLIV9+IDY+KWcyyGBnbYlu7ZuiS9umKFrESYXZfMTNzs7Gu6Bg7DpyGnefvGb0mjlzq6JbCRzctABGxkZqFZ6P3oTYij1TRDGESFMTpsky+Q5wsiWMm7tePi4T4wIY1qcjenVpk8OEHLzV7MNk8KFfw3Aq4CYuXH9AiclXrC3NsGDyUDRtUEcQUcnqJF1q2hLJRCL/IJHAQMXklYtF6LcwjJ6xCmER0fIfx3p3w9B+Xry4koN+wyqJkRjpSxRDfiVmxBgbGdkp9z5x7hrcfPAP/dnGyhx+WxfBxbmw6syRUGseMRKRsashUq5I+i0sHGt3+OH2w39gbmaC47uWo2hhR4XuCSFT0zOQlJQCqUwKMxNTmJubwKhAAXVEgs+UZXgT+AnpGeov2qYmxqhUoQyG9O6IejUrKTAqJjYO3YbNkE+aIo72uOi3kXc8RCR2sDJWoZm67U4wQ9Rd+gaNm4+X7z5R+NNG9UXfrp7yvlLT0rH/2AX8de46YuMTmFmofIhJJDAzNUGFsqXQoVVDtGhYG9aW5hr3518xcVi4bi/uPX4JKc92xzY2NDREpfKuGO3dHbWrVVRQN7589xFDJi4BWZlCipNjQWxaPJluj2zxP3MJyzYfoX+SLfn+uT2qkhmAxMTES86FrAVdHgUx5E3Iz47FizqdVUZ84ZqdOHXpDv35xO6lcC1Vgv4/MjoWvX3nICaO56gRIDoSGMWcnTBxeF80b5CrrY+NT0TXodMRG5cghIYqdSqVL4Oty6fAxspS/m3u6l04d/lvwfAsLcxxYs8KemaREh0Ti5a9xuasegkent8LExMlcRkyfAuPFKRm0coQoihs61pRxe78MeQLegyfTZE6uHEOqrqXp/9fvvkQjp25wjtAgbyQt92+cgbq16zE9HH8Itbv/EMw4TRVJOKw39aF8m3t/YdQ9Bk1RwRsGTq3bYqFU3xom8zMTNRrPwTZUhldKU8vHeTdvi59emeiTSGplSGRcenfTU2NnZWxrdVmILKypejarjHmTR5OP4+ZvRZ3H73QPDCBXBnatzPGDulBYS1avw8nL6hKbiIoyFt13qRh6OrZlH4j0l7Dzj6qW6AGfIs4OSDAbwNtn5GRibqe3lQIK2Rvg6v+W1X6JFriQjYmGjXgGhkSGBrVr2hhB2aT5JTLN+9h+tLtdBa8uMqYBo6euYoVmw/myIVa+ayRlrY2Vrh1Yjutc+jEJazbroKCUnvddVNV3cvi4MZ5FF5WVjbqtvdGdrZwTyErSwvcOb2Tto+MikbrPuPp/1fPGYVWTT1UxqnNnqKWcsTSl5gOXszqtBtML07zJw6GV/uW9GCs2WZQXiesvP3tUztBLokxcQlo3n2U3uCqA2RvZ4Mbx5kZnZ7BbD98Aoi69s5FHHHh8Dr6ec7yrTh//QG94T8OOMDbxMqECG38ThRqGfItKvG0jZVlZ2WIiUnJaNTFl/78zzVm5k5euAnX7zzWC+GqVSqLAxuYGevRcSjdSlSL7itCEVYuHO6q/BkVg7Z9xgkYT277aWMGoW+XVkhNTUP9jsNo2yeXDvCK38QcXKyQZUe+DngZcv/+fbNKNerzelts2v0H9h27iJIuTjh9YC2FWa1lfwHIM1ZubUqUe2f3wMLcFPefvsaoGSsFwVVbSUiHnMYlXIrgzIHV9JeTF29h0brdgm3zRDdHJCwuPQ5tnIsq7uV40bv95pkFn+MEL0PCo1Oe5nqHKM7Gpl6+iEtMxsrZI9GmeQN8/hoOL++peSNcTmvuLK3Tfggy0vVgIRXJlJ6dW2HWWGb77TR4Cr6G/dQ+i3LwZ3eMBp2GITklDSMHdobvQEYwUS7JKakvitib11D+XYUhmlYHl/v3z+2GuZkZvaCdunhTR4YoMnvV3HFo3aQOfsXEo2XP0TrCFLYSNQE/vW81ShYvQg/5Wm0HCQZIBBwi6Hj2HYsfkbHo0KIelswco7YrvlWiwpDvkUlX1DmxkVtxjdYDaQfsbGjZawx+RcfpTDzuPvb86mGqohg/fz1u33umO8ycliIXh7w/cpd4dvkQ/XvL/r+wx++0ZlxyOnp+5RDVr3X1noKQbz/RomFNrF0wUW1b4ozn4mCp4DCowJBcyYr/0ExITEJjrxFUD/XiKnOgEwZpUl+oIwrbMXumcPfgGq0HQCrVdtqI5Jcg7uSOe0CP9pjs24d2Ur3VAK1SFwFPJhRZIe36jEF4VCw8m9XFstmahQNliUuBIcFfoyY7OjqsUTfU0K/f0WXIDBA7wpNL5M4h/EBnYKqXjtq3bIilM0aAWPJqtxssktoCqgtiiCIcdsXu+eMstuzzV/jIB47dNRp19qH2msE92mKCr2aBJzI6dloZZ3tGklAWIWKTszIMDQ3VOj6/fBOEQRMWUymISEPiGaKecPs3zEP1SmX1I11xutGBD/LWfbzaYPpoZnWQVaKpcC/J7ApfMs0HHVo30diOOHjbWRjKlV/yFUJCAqqWrazRHf/Rs5fwnb4a3NupUJFX2xx+eGEfiMp75vLtCLh+T1v13/KduzV3HDQF34jEpaZYmJvh3lkiJufuGif2LIdrSe1m3zfP3xVkQyHkDAn9GbfP3tbGW9NIn796hyGTluXLCmGXe6teYxEVHcssX4kEriVd4NmiASqWLUln6uMX7+B/9hqSU8SYcLVfJDu0boQx3j3g5GDHqxi8fOsRpi/ZrHbbrVPdHbtWz0RWVhZqtWW23EcX9/Gq45VpHBufcKCEE0N7OUNiU7KzDLUEy3wMCUWP4XN4zhB2wNoHzsdw7kwkKhjXEs5Yv2gSnAs7qJ0fb4JC0H80c6PPSyniVAgXj6zT6mTx7mMo+o5UrxFeNG0EOrVuiOCQL+ieowVnJ5k2/LKl0mw7c0NqUaMMIWFkDZuXSdPWMC4+AU27MboltjMyG8isyEsh1j2iZiCFGLWIwYpbfkbGIDA4FBIDCWpWKQ9LczP6OexnFNr3Vy9WasOJuPmQWcyWU5duw+/EZfyM/EWtjxZmZlgwxQcNalcBMWgNGrdQLci/T+2EtZUFNu7yw37/AJgYG+HRxf3MSlfSUPCda3dvBJuS8DrKkKAvEQOLODkyYpOGwr2HsJeg9gMmISw8UltTjd+5ZxJb8Z+3HzF9yRZERDH2ayLfE3eetPR0cDW0vtNW4NHzNzr177dtMdzLlkI6sWd4DkH/bu3Qr2sb6nTRZ8QcJCQlY+/6uahZuRyu3XmCKQs3qu1HvuX2HI2omHjUr1ER21fNEoxXWHjU4AqlHA9ShvyMTX1jbmbqLqQ1e4jfObUDVlaWWLLxAP46d01IU7W6LDsbK9zMUbcTb5HeI2dT+wJbirsUxtkDudL4+t1HUbWCG5o3rIno2Hi06KF0qxcoWrFEJPbx1NR0XPTLddJo2Hk49YoheBH8Vm/3g9+JgByUFLfmgva2uO6/hX5j6bN16WQ0qFtdlS5qcEtJS3tf2NasImVIXKo020AizBW0fochSE3LwObFE9Cofi08exWIoZOWCGKIukrELHr3zC6FASnXfXb5IIiNnJQrtx9j9fbDuHqUHLKcu5BARpA23Ns4e/ErXcIZ3Ts0x/aDJ5CYxOhW2Z2gp+9sfPjE75A4YXgfDO7ZnnpCNuvOTI6nlw6ggBpHCz46yGQymY2ZgYFkgUxmMCkdwiz9/9u3fSYvxpOXQWjTpBZWzp1A7QfEUpaXQvyvnuTYDjSJ0W2be+Dr93C8+/CZdsfO8HodhiItTVN0s6qwQYhFiKbAUJ5BsH3U9Ryi1kvl/rm91Ctm/c7DOHj8sgKzxdBl3QoYSh68+FzSvUJJZoQCyrnLtzB39R4Q/6i/TyvK3QrNRcxWcj4QPRApQtQUbD/PrhwCcZbznrgEL14HCsA+twr3IqdOMDE2NsLjnINZ3UThrjRi2EpLz0DLhjWxRq7DUp4M6iXR90FfSkvef44c7FykECMOCCh8klZjL18kJCYLaM2tkosYlzg12wwUbEIN+GMjijgWxG6/M9i6/7hK/9rmBLsd9Rs9D2+DQlTa29tZ48bxbRpXUee2TaizA/f+cf7QGrgULSyYHiyePyN+jZB8i0o8ZWNl2UVwa86e/eD8HurjumDtHpwOuCUGhEpddmsg9xChvlJr549Hi0a18fRlIIZNFn+Ondi7kt55bj94gfFzGWMbt7gUdcL5Q2s1qk5YcffPkxexchvjFSP0/qHcX1xi8jlJVFxaqImpCeNQJbDUa++NtPRMrJ03Gi2a1EdQ8Ff08hUu4il3o+sKGd7fC6MGd0N4ZDTa9WWcC/gL/zbRpH4NbFw8SS3BHextcU1JeuLC596fGnQciuTUdFSv5Ib9G+YLpKRitdS09K+SmKSslAIFDJmbFk/hW/aT5q3FjfsvUK2iKw5sWkgdmmtoUb5pgk8ufM+vMN4rYs6QTq0bY9E0HyQmpaJRF8YVSUzhToTO3lPx5Vu4QnOiWyM6NopXy/4q5ufxPn3g3as90tPTUbf9UFrv7IFVKO5SVJC5WhnXrKzsNElcijRbbPQTq9MiByo5WEkhljViYdOlCJWylGG3aVYfK2ePRlJKKhp2YpzWxJbju5fDrVQxfP6maorWtnLJJPqfoIol63fjrwu3FdyixOJBJn62VCaTxKfKZAbECVoEBHKTrdmaqKMlYO8HY+esxZ2HWpzk1PRhb2uDG38xbjhitMddPZth3qShiE9IQpOuI0SMILdq0cJEl8VcCOt4eitcSMlv7HnQrNso6p/MlnJlSuDYjqXM6mnVn7qS9mjfFLMnDlNYHdoECy7SdGNNSBMYTaMwXBn1wyIOZduXT0X92lWRF2VfjcrlsW/9HAqPSFlCy5RRA9C/axt8/voDXkOmCW2mVE+G++f20XvE/WdvMGr6CoXvTy8fRAFDQwwavwgv3+YGRV09tgWFCtrixav38J7EMIaIyERUFlu4TNORIcDoGctx7+lbVK1QGgc3L+I9GIXOjsG9OmKCTy/Rzg3+u5ajbOliOHvlLuat2iGWDvL6XN0YsVYSqyVbWKc9rjMHV7PQxGs44hNTQEISAv7YpDMObEOdGfI28CP6jVmoYF9v0MlHo51CHYNmjvNGr04t8OlLGLoNnS54UOzFcNTMVbj/5JXgdnwVWQPZ01eBGMZRBZ0/vA4uRRyxy+8MtuXcdQ5tXoAqFcogOjYOLXowXiUn9yxHaWqM0s0EkWeGcM2a987sgoWFuTAPDR5qjBrcHcP7d8H38Eh0GDBJEGGJ5vdxAHOfFWYC0Eyo8m6lcHT7YgqPeGYSD01Szh1ah2JFHbHb7yy27venGme2325DpuLT13DGbZSoYcQcxGpGSQ91DVFcGonTuIsPEpJS5Q5hScmp1INcbGlYtxq2LJ2S6wclAMBo7x7w6deZBO2jTjt+XZrQLZPt7vrxrShoZ4MfEb/g2W8C/fnv07toABF7+d2zbg5qVSmP5JQUNOjEiNobF45Hkwa15ViL7ZdtSKeMLmIvC2D/n2ewce9xmJsa4/55Rl7X5hbEtFWcrcQg9SDHDVNYe9B7CxE51+36E4f8LwhgIbcK/2rhOl2TwKCQL2FybS/5m4Res3j28p2JoE/fqJ2G1cOJREKlupSIvdouhpo6kV+IJMCzS4x6fMbybbh0/b5A3HIJw54HG/f4Y/9RlWAtBXg1q1TA3nVMsJCYi6QQpA5vWYTK5UtT9Xvr3mMVJsqxncvgVsoF8QkJaNKVsZyunD0KbZqphh0I6Uu5Dr0Y6qI64c7w2m0H0UD8uRMGo1uHljqHEAzr1wVjvLtrJTLZDm6f3glrEpfx+CXGzpK7NAmngYY9xczMFA/OMS5OT14GonZVsj2locfwmfL7Sru+4xAeGYMCJFoqx8NRSOfatjKqOtFFucjtfM22Qzhy8gqsLMxw5wyjjhejIOTCYrWvgcFf0HsEswKUi6mJCR5eYLzMPToNQ0qKVlcA9bRSopAEMpAgarISuMGdE+dvwLKZI6mt/+OnUPTwZZwddq2ahjo1qgjhhaA6CfFJZ0Wr35Uhp6SmwYONhwjYDyMjI2za6499f2redviUPe7lStOQakInEqg/eqZqOMLMcYPRq1NLGjdC4kd0L+qlLq7SMCs7G6u3+WHmWObCyu4IJPz79inGyqm+iBOBqfpdrIGKr/N6nt5Iy8jEkF6eGOfTV7O0pGXdDuzhiUm+fWk3ickp6DZ0BiJ/5frvESdoYhTKm9e9djY2/1949roFihrkvX4nsXn/Sdr4zP6VVKlKDGOXbj7Eq/ch1HpKnMU9arljw+IpcpOzpt645KAGKqEmXBU6cn7wP3MFyzYTz+9crW2nQTmxFdrHrlLj1skdsLXODV0mA71x7xlevw/GtFGMr2zN1gN5U3Lo0J3aJqvnjUOrxnXod03iNR8AQp5HAfvpvUVooSZcUlmMkwMfcO4l8diOxShXppSoSx4XJuuaQ377/iMCxEikrhC3pJ2HT9F/uhRNi5UNUWPhhoVHYNzsNfgSFkF1bsRkQHyvXAo7oEn96mjXvAGKFnFEROQvdPeZRSOUy5Zyhv9uYVFgcicH0qEYNyB1Ax8yYSGev/kIB3trXPNnzJ6sK40wYsmwZv4EtGzEXLDGzVqJvx+/hrGRITq3boQu7ZqiuEsR6lesXF6+C8agcQuEdSOg1t51c6hDnq7l1dtADBy/JFcdr4nzOd9SUtPeFbYzc2cd5QYUcXJkDBs6Fm4wKIloJZesDyHf0HP4TEEQRw7uDt/+jCV5+ca9OHZONSqL1aYSE2+LnmPh1a4pxg/rSdv0GjEHQcGhnL40Hajqv5mbmdIUGaQs2bAff124DseC9tiybCq1myhrNcjuQKKFg0K+wSMnyQFJIbVsMxMrwoaNayOCgqMcryupNqGZpwdWPic+uReOMAH1rXuPUziU+RBr1rA21uccoEdPBWDFVj+Vasd3LYVbacbSzHX7ObhpPqpWdEPQp7yZkSlgCdDVsznmTRyClLR0eHTgl+LI7VyeQQgAN7iHJLQhLkOk1Kjkhn0CzbkKrqSksRBna21cJhneWvVmIoZO71uBksVdqK9ufTUDI/XINnQ2J/L1yYvX8Jmau+cSpZ1n87qYOW6oPH9I39Hz8I7jIeLZqgGWTR+ptR9tuLPfZ08Yih4dmtEZ30vL6m7iURNr5o6leb1IIVmCyMolzCLzmcSps9809U9eaLDlOluTykLCEYQMqvuwaQgO/aEQOE+cmBeuYS6N3MJ1dmazIDSuWwVTRw2gbjTKOa6mLt6Mq7cfKcC4e2Y3zQqXkJSCxmLt6jy7wOLpI9CxVUNKVL9TV3D/yUskJKbAzMyEeqiQVE21qlSgfXKbbz/gj51Hcu9e/juXoKxrSSEkI5ZI1XAEIQE7QqCTRCy1c7SvXm0aYv5UxrS6apsf/jgZIHcFJ8ueeJ6TSxjxaarddjANeDHP8Wxn+yJqmVMBt7BqyyGQS1rOzkLVk0d3LEX5Msw2FhOXiObdRwpBUWMdrpSnDRhh2oWrtzF/zT65CE4m0SW/9XByVB9KoQz35YfX9o2qVKFBMfRQZ4u2kDZtCLLfuefA+gXj0KwhI8u/DfqMWSu2o0KZElg+a5R8BRCPv0plS2DPesZ95urfT7Dj0Al8/hLGm6+RWOxIKguSQJMtJIdWy57qQ5CF4n771A6avunOw6coVdwZhQoWhGEBQ0izpVTlHhL6HZduPqA4knh9bvGo6Y6tK2ZojTXhtlEb0kYqffwePdHJwZ5J2iG48EssvX1nIvATk0F25SwmyYByITOM5DIhebAszU1xNydukdR7+PwtTWjzNugTPR9IvsY61SvRZGSFc3JVkXoPnvyD+rWrISIqBm0EpcPQPDBW69xnxEy8DxaWAdetlDP2rp0Da2srwVRjK2oM+tSUcEZwT5yNtVWPUYiKZTw1ShUvgq3LpoJELBGx9XTATSzddJB6a7ClVpWy2L12rqAZRg5Qog3o7dWGhqL9jIpG25xMPIJx5amoHEnLB4sIG+7lSmFYn07wqFNNEL7qcNIYFk0afYtMumxjbdE6L4OibXMY03/0HLwJ4t4PVCE386iBm/efyz+QpT98gBcqli0NYzaZMcmtmJaO2w+eUmVfdFwirT+sX2eGIZHRaKvRe1H7iIgeioRCk0Ic/4iuirg5EX8zYushOjRG0BCnNFTXc0JC8lUXR0sFWiucIaShttQaisCFIfbi9XuMmbWGulpyC0m1um/9PJpUmfWq1042xRqDe3piwvC+orcsvmsWX3Sxrn66WschAW6/Vk1Ao8IQAuhHbMpjSzOzXCOxVujCKpAZl5SUhAKGBVSkKbKiSMZS4rS8/fAZecAMH+SiTvaYPnogxs/bgH5eLTF19GDo41AnCTOPbFmokP9LzhAdLsqaqJKcnPqsSEHzWsp1eBkibpUIY4aoWjmDJyI0UckkJ5N7gBmsrS3l2lMSoENu7F3bNsC8KSMRl5CEptR7UXg8hjJOA3u0xyTfPjSxJbngcV1lReEvoLKo9EzMWZJ40sbakj9DsIAOhVcRtu0pw2Mz9bRrWhfL54ylqSxISou8lE1LJqNxvepUchs5cw3MTIzxIMfZOi9wlduSsIPihfjf5OJdIQQAkbgS0iFVW0GfGOqwHcikUlRvPRCN6lTG5mXTlVQnujBZhivHttJE/pt2+2HfsQA4FrShv+m76JTijyDxPvRnX+fCTqqaPn1jqAM81gZTzd0NBzbOR2bObV8OSiyTiecMsUYaGGDAmLl4HfQZNSu5YW/OZVUtiiL7+REROaB8CSe1WT21LgB1aWJ1oKGem8hQreUAlHQuhNMH16vGqIgkFEGOPcAbdhqGpJQ0DOvTHmOGMimauEWAeYOprlQxLT3jh6ONiUrKXWXYGgn19OlTo7KVairl2tNlS9AzP3JCF+ysLXDzJJOmVUwogzI2xMOdeLqTwoYX7Fs7CzWqVtQb4npJpEywef3pZ4eSzk7n9OC6KmhwQic3SYNkZGSIRxfUhDcLBQRQU7FyPCEbQykIaS2Vvv2I6OxeurAWVxwRz2F+i0o6b2Nl0V44cmIS0ui24ohURbYW1ionzotRsc8enVpi9rjBSExMQiMvRkOteCnUDUcCJyExMcClkHXuKwUaiKj1DOG2/ZWQEWNsrPpchXAm6bfmgNHM4Svf+3PSYejSy+EtC1G5vCtu3XuMCfM3wc7GEjdPaIo5EcagfHuuggxS8UEXYQiJ2DVE0/HQsbNYt9tfnsZixPSVePjstWg4pAGbzs9n8iI8efkBk4b3wsCevLmOBcPP9wddCCZ37wZaValVTrf3IgQPRVhF1mTst2UB3MuXwZOX7+EzmQkvE1O4qcLZbe8J8cLkfc6IOxE1T8q7/wTbeNZzE0UrUVsWO0i9PpcnhnI8dYlkVblcKRzeygTbiDtHGIA3/toGe1trefIxJwdbXD7KZPfRtbwLCi5Wr6rbd7HtdWII6eTJqy+ly5UtzjytI7oI2+6EgPWdsgSP/gmURwNfu/MUUxYyHi9CysKpvujcphGt2qDTUCSnpENsagzlfj5++u5W071YsJD+levozBAC6LetFA0HUXhEFNr1m4i61cpkDLUEAAADDElEQVRj5xrGK33Sgo24cfeJRnpYWJjBf+cyOBcuROut33EYB/+6jPKuxXB053JdaEnbBH78VLxOZd0f28wTQwgCd+/etapUwyNOJfkAefRLppewO63EIf5TxI9qz5oZqFWNeZGHJPOfumiTQhAqsXd0bN0IvgO86HMYbNm2/xh2+Z2jvslEfaLxkUs1k4Mc4PdffbITe2bodYWwwOjjxJMyf4kSifUofpHX3DoOYh4E2Ld2JmpUFZQcDzGx8SChaVExCdQjkQSvmptrfpCMb3ZkZGbGbllr5CDmeTx1syzPK4QLWPzlUevkF1xhw84jOHD8Eq1fpXwpbFk+nb6fqFzI+x6nAm5g64ET9LwgxdbaAtf8t4rKAMfCFXPpEzIYvTKEdEjULCWcnc4J6VxMHSELaufB49TayBbShmRoIHZ5kudX+TlVor9aNmM42jRroFNEs1B1iNhxiqkvqC5RSBYvU/kz32NiggDkoRJ5MIDkzvoQwi9xkhCCVo1qYZxPbzg6FNSpp7S0jLBbYcGltb24pgtwva8QLhLEnlK0sJNfvnaiYdTkhWr23UnyzjF570RQ0bAcf/z81b98yUL5ZiPKd1oRy+P3qKQTv8ccLIjcOlWKT0w64+Jg6aXuMS+dgPI0yneGsH0Sx4mSFardzg9vFu6ZoW8TAfEOefr5XWO+96L0xQQunN/GEC5jipWpcjrXGU9/t3Z9Eog4sX0NftXZw8NDTNb/PKPw2xnCYky2suBvMRMdCtqs0PRmSZ5HqAJA/QTIzs7OjI6OnelazGFdfm9N6sb1rzGEixAJhSjmWHytjbXVQPUvNOTPSiIvEyQkJh3+GvFlEhsSoP9JIBzif4IhXHRJeJ2ru3VPG2vr6aamJhX4UqCzQpCQu4kyKaQymSwtLf19fELCyk9vE46RFwmEkyv/a/7nGKI8ZBJH3+af0OLWthZNrS3NOhsbGVU3KlDA0cDAwEQikRD/aIVCvOllMplUKpWmZ2dlRaZlZr5ISko9ExeXfOtytZJfF0gkwh+6zX/6q/Twf9fVjq07HkxWAAAAAElFTkSuQmCC;" vertex="1" parent="sdSFOSKggI8gM6giwSen-287">
          <mxGeometry x="44.1" y="263.9" width="29.8" height="29.8" as="geometry" />
        </mxCell>
        <mxCell id="sdSFOSKggI8gM6giwSen-320" value="" style="container=1;collapsible=0;expand=0;recursiveResize=0;html=1;whiteSpace=wrap;strokeColor=light-dark(#326de5, #55ae70);fillColor=none;strokeWidth=1" vertex="1" parent="sdSFOSKggI8gM6giwSen-282">
          <mxGeometry x="115" y="240" width="220" height="150" as="geometry" />
        </mxCell>
        <mxCell id="sdSFOSKggI8gM6giwSen-321" value="ingress-nginx" style="shape=rect;fillColor=none;aspect=fixed;resizable=0;labelPosition=right;verticalLabelPosition=middle;align=left;verticalAlign=middle;strokeColor=none;part=1;spacingLeft=5;fontSize=14;" vertex="1" parent="sdSFOSKggI8gM6giwSen-320">
          <mxGeometry width="48" height="48" relative="1" as="geometry" />
        </mxCell>
        <mxCell id="sdSFOSKggI8gM6giwSen-322" value="" style="fillColor=#198038;shape=mxgraph.ibm_cloud.ibm-cloud--kubernetes-service;strokeColor=none;dashed=0;outlineConnect=0;html=1;labelPosition=center;verticalLabelPosition=bottom;verticalAlign=top;part=1;movable=0;resizable=0;rotatable=0;" vertex="1" parent="sdSFOSKggI8gM6giwSen-321">
          <mxGeometry width="24" height="24" relative="1" as="geometry">
            <mxPoint x="12" y="12" as="offset" />
          </mxGeometry>
        </mxCell>
        <mxCell id="sdSFOSKggI8gM6giwSen-323" value="" style="shape=rect;fillColor=light-dark(#326de5, #55ae70);aspect=fixed;resizable=0;labelPosition=right;verticalLabelPosition=middle;align=left;verticalAlign=middle;strokeColor=none;part=1;spacingLeft=5;fontSize=14;" vertex="1" parent="sdSFOSKggI8gM6giwSen-320">
          <mxGeometry width="4" height="48" relative="1" as="geometry" />
        </mxCell>
        <mxCell id="sdSFOSKggI8gM6giwSen-324" value="" style="aspect=fixed;sketch=0;html=1;dashed=0;whitespace=wrap;verticalLabelPosition=bottom;verticalAlign=top;fillColor=#2875E2;strokeColor=#ffffff;points=[[0.005,0.63,0],[0.1,0.2,0],[0.9,0.2,0],[0.5,0,0],[0.995,0.63,0],[0.72,0.99,0],[0.5,1,0],[0.28,0.99,0]];shape=mxgraph.kubernetes.icon2;kubernetesLabel=1;prIcon=ns" vertex="1" parent="sdSFOSKggI8gM6giwSen-320">
          <mxGeometry x="10" width="41.67" height="40" as="geometry" />
        </mxCell>
        <mxCell id="sdSFOSKggI8gM6giwSen-325" value="ingress-nginx-controller" style="aspect=fixed;sketch=0;html=1;dashed=0;whitespace=wrap;verticalLabelPosition=bottom;verticalAlign=top;fillColor=#2875E2;strokeColor=#ffffff;points=[[0.005,0.63,0],[0.1,0.2,0],[0.9,0.2,0],[0.5,0,0],[0.995,0.63,0],[0.72,0.99,0],[0.5,1,0],[0.28,0.99,0]];shape=mxgraph.kubernetes.icon2;kubernetesLabel=1;prIcon=pod" vertex="1" parent="sdSFOSKggI8gM6giwSen-320">
          <mxGeometry x="85" y="51" width="50" height="48" as="geometry" />
        </mxCell>
        <mxCell id="sdSFOSKggI8gM6giwSen-326" value="" style="shape=image;verticalLabelPosition=bottom;labelBackgroundColor=default;verticalAlign=top;aspect=fixed;imageAspect=0;image=data:image/png,iVBORw0KGgoAAAANSUhEUgAAAGQAAABkCAYAAABw4pVUAAAAAXNSR0IArs4c6QAADBNJREFUeF7tnXtwVNUdx79nE4gJMBAo8kZL0VLkNRPBbAIaiBZ5WqokgDhTBgIkAbQIQkvVCB0f0NYpkgcgMAhVwBEdELUakArsRh4VQcVpbaWKIBkKFALktXvq2c1udjf3cc597d1k9w+Ygd/5nd/5fu55n3suQfxnKwWIraKJB4M4EJs9BHEgcSA2U8Bm4TSPGkIbml4CajN9hcOJfSAl6c8DZElDyTcg352HGAYTu0CKnfeDYDeAxIjHkNWS6Shwvyr8eNogQewBWTuiGzz1xwB0U9HvMiiGotD9lQ105g4hdoAUZSXi5urdALm/sXSsMqgVgVYg+aaRmLG/mluVKBqqlSaKoYVkXZz+BAh5QTIYQgEqV4wwYKtQ4H7CHgWSj8LeQMoynPDSDwEkNS0CT+1oksoDh2Mi5h56x65g7AmkZHgq4DkC4CcGgYh08z08jjTMP3TWbmDsBaQIDnRxbgXFVIuE+isqk8ajaH+9RfmpZmMfIMUZeSB0LUcvrVooYQOC3yDf/bxwOhMSRB1I69KMAbWUugG0NaF8Ii5rQGg28isOiSQy2jZ6QFYNaoM2KYcAMtjoQun0929UYygWui/q9KMpufVA2LpTWfoaUFKgKWLLEpHtqHRNQxG8lmVpeXtdnPEQCN0OwGFlIXXkxR6ffOS7Wd9myc+aGlKafisoOQqgkyWlMj6TKniQgfnuk8a7DvdoLpAd/VvjQvtyACPMLohF/k/g2rUMLD5xzaz8zANSkr4CIL8zK3ARv6yQBm+UlCHfXWDGMr/xQErS7wUIW5poJSJaDNqyzn4KCtyvGxm7cUDW39UF9Y6joOipK0ATHmdd8agnvgiP507MP/y1uqm6hX4gOyYn4MKZNwFMUM9OzMIqNsbkQw6iPu1eLHipRqyURnbqJekLAfJHPQGYndYYsYWifA4F7t8KpQgx1lZDijOGgtCPANykmrHVilidn7QA9aBkHApd76vqE2EgDqTE+TmA/qIZydm3cvi3xOu80V1wZXEQQlDrqTOqaGwz8wzmunuLjMbEgJQ6J4Fip1TE/A8mRefkVJRPWI1BnfqGubpcU4Vnjm7An0/sADV6oCoj86Ih0/B8egESSOPiwbavyjH1g6eMAUPpEhRWrOR1JgbEv0S+jte5lN3Y3k7sGafc7VBK8fO3H0P5GbZHZd5v78SXMKpHmmQGl2r+h44bx/h27HXNYShdjcKKR3lLYSmQmxJa48bs/byxYe5HK7H287e47SUNZRTN7nEnyieuVvS94dRuzNr/nL787QzkxcxH8digXKECDntjJo5UnhJKE2YsA+T09J24pV1Xeb++sxMUjtJM7XmzlHYG8sWUV/Gz1FuFC5i6cTQu11wVTqeUoG7OASQ6ElR9JpQNh5fqWIG3JZCGp/TLqdvw0w69Q0TgOzlS46lDyvoseKmu1jxM/Pq5B5BA1IEklg2HxweEL9YmhG0JpCHKpkBUH9Cgwemr5/DjrQ82JtDZ24oDCY1VAE6zAxJS9re+/giT3lvKT1HBUh8QATjNDkiEqI+7XsKfPn1NNxTP3ANwNDRZSs97Y5OlMUv7A+mle+c4Y+dsuM9/pkGhRumNqyEqYVgLRKAt/WHzQHMfIpFNp03342L1FQ1Q/EmaKRAxPTQDkcim1luH5HUjNQ9JzQZCCJuC2GUeIjMCMhIIY3Sm6jx6bZkk+1QoDcTMBhIMytomK3o1JJDznv+4MP6dRUKBMFB1UvMQiaaxBXTqoRNDaR1XHf8LFg95mFvkpRUleOGTrQr2TZVuWTWkSVvhn2F/OXV7xExdWkM2AWRL4rl9s7lnyHe/lY8D5z7lhhgAojYsidcQwDcjZzPzf0zbgdva85+Z6LxpLC5UX+aC0rJqiIwkvJ16AAgBwbW8fUhOlHiBSiIPtuuYvC6rYe1JmYtVQByUrvbadT9EHYi/AfEBqTrnW89r1zoFV2ayw498v7PXLqDHKxNVjcWAeLRPZm03ygrpT9SB+HUM1JCAqoM73YbjOZtVRQ4YvP/txxj99q8j7MN7CzEgMbP8rtYlhmuiFQjzMrv/A1h7T+DCBnU2Tx1ejxXHNskaNlMg6sKEWugBwvxszX4aD98+mjNTilG7FuDD79gdA01/kkC0zkOUZqC2a7JCtBAH0lShU1NfQ78Ot3BCAbpuHo/z15u+DCUPJDzPFjfslWr0IvuQUPXZyKsqby9SEtXP6LF09V4Pktdn+f4O/bWIJkttE0+8hkhXhLatknFl1l7VSzUCqb+/fhHdNo+XAMLOYikfvGlxNURKcqUaErC/o2MffJartFwS7nnfd8eQvWt+8B+NriGyD6P9+pDGRsmoGhJQ9Vf9xmHTyGXc/cnyoxtRdORl33EFo4HIBmE/II2hGg2Eed44chlm9BvHDYWdiPzg28PmAYmsKtYCMWkesqVhps4p88ncrRjQsY+8dUSYbCb/zSNvCh4D4gwm0sxaIGJBmlFDWATsoWSdPOvseX7snBVL4wg5YC2XTl+nzo4/wr5ne3UDURjGsWEwGw6zYbHvF1YrxGpyKBx9QOyyhSvzuOkGEqgOMgcY+6XeglNT9B8RigOJAMgz7JVrYqbfPhpbsp9u8t+qdaThYrrArCRgn1CW6T/CqjbJkguoJfYhkVqsu2cJ8vo/wNOdqNoEgahayhjEgfiFOZ7zCgZHvKHVKJlqfQma8gFR8BcH0ijOlVnlaNcqReu5dR8UPiAK1cc2QCTaXEM6dYGmg239si3g4MhLIG3AtPkAkSi81UBYCH3b98Q/p+3QgMKfJA5EYgtXs5oNCXP6ZmP7fSuauuHoSpo1kJO5WzCgo8TNrxFS9dryC5ypqlTlIDISXTPicRQOCHnhR9W738BRlgn2VrDmn236EFaCCMWeTJuB5cPywgY77FLqyB0J3e/1yah39KGNSOvcj1vbak+t71iRrl/0gci3A+wlS/aypdLvvW8qMGbPQl0aKCVmi4q92nbh8v/Au0uw67RyvKqOog+kMUSpJiWz6yAcnFQmWQ62s9d983h9L+qrKgSU3L0I+Xf8UtHy2b9vxrKP1a9aVG02zQWSngtCtnGUWdGkfeu22D12FTK6DoSDEFyrq/ZdqfGH41Z88sNfg1ltZe/MLxg4Gd3bdPbFUeepx9/OfoJH9i7H+RsG3RJLaBHyK57h1UzsJgfmtcR5/oc/bw7PgGO4whtR87K7ih/1TEXO6+EnLBTKKA6EOSvNeBCUssF9rFz3Gi6Bajuj+6mgoGQOCl3rRT1pAxLIpcS5BkChaKaxYK+dGd2GyoqHtV7ArA8IU3ZtWgo8rdl96UM0L1FbSUi70mpR/gtIGIqCg5fUDJX+Xz+QgPc1mXfA4WWX6rfjDsg8ceRDMD7PGlCMQqHbxV1uw/sQpZyLnTNBwNpO42AbUVJTfJClKHBJf4pJY37miMY+zHKzcwuAaRrjsnuy91CZNMGMD8GYAyQg54tZHZBUw66F893lZ3xrocLN+AzPISExDXMOnDPriTEXSHA0lpkOeNnHvZRPSBsvoFG61QN0Igoq3jXKoZwfa4A0DpMXA+C+ENLswvv8qz0EhKxEvov/TSGdQVsLhAXr+0BkzS4AY0RiV9NNxBcPB1C44ekwEgve1XVTtZa4RNMYY188tCtIInu9qXujQ4UlGKOJyJfiEiiGReuTrdbXkEghSp2jQfG2xEeGpSXjAMNhIuXbC4rpKHQbe9JO8PGNPpBAwMXO50AQcl2cv7bwiMtjo6wLeRn5rtkiN1AL6sxtbh8gLOTVY5KQeHkfgAzuEggYSoD7HDQpHYX7qwTcmGpqLyDB0djwPg2fXu1obOmDfdR1UJKJQtdxY/3r92ZPIMFmzLchxnatjFrmZ8vi81DoKtEvnTke7A2ElZl9uK7UyfZ8Z+uTgL6Byoocrcvi+vLmT21/IMHaktUWjhoXKAbyF89neRpez52Yd/i/gumiYh47QIL9y12DAAdb6m6jolgtvOQ+zHOxD8/EzC/2gATBpM8FCOsLJMpAnkSB6/cxQyEk0NgFwgrhX+bfBtDJDVzKkVA7FnOOGfiZHGuxxjaQgFZr01oh9QZBzhe11spnfG7NA4jxukTNYxxI1KSXzjgOJA7EZgrYLJx4DbEZkP8DJ+NCsF7W77MAAAAASUVORK5CYII=;" vertex="1" parent="sdSFOSKggI8gM6giwSen-320">
          <mxGeometry x="95" y="120" width="30" height="30" as="geometry" />
        </mxCell>
        <mxCell id="sdSFOSKggI8gM6giwSen-327" value="" style="container=1;collapsible=0;expand=0;recursiveResize=0;html=1;whiteSpace=wrap;strokeColor=light-dark(#326de5, #55ae70);fillColor=none;strokeWidth=1" vertex="1" parent="sdSFOSKggI8gM6giwSen-282">
          <mxGeometry x="115" y="60" width="220" height="150" as="geometry" />
        </mxCell>
        <mxCell id="sdSFOSKggI8gM6giwSen-328" value="kubernetes-dashboard" style="shape=rect;fillColor=none;aspect=fixed;resizable=0;labelPosition=right;verticalLabelPosition=middle;align=left;verticalAlign=middle;strokeColor=none;part=1;spacingLeft=5;fontSize=14;" vertex="1" parent="sdSFOSKggI8gM6giwSen-327">
          <mxGeometry width="48" height="48" relative="1" as="geometry" />
        </mxCell>
        <mxCell id="sdSFOSKggI8gM6giwSen-329" value="" style="fillColor=#198038;shape=mxgraph.ibm_cloud.ibm-cloud--kubernetes-service;strokeColor=none;dashed=0;outlineConnect=0;html=1;labelPosition=center;verticalLabelPosition=bottom;verticalAlign=top;part=1;movable=0;resizable=0;rotatable=0;" vertex="1" parent="sdSFOSKggI8gM6giwSen-328">
          <mxGeometry width="24" height="24" relative="1" as="geometry">
            <mxPoint x="12" y="12" as="offset" />
          </mxGeometry>
        </mxCell>
        <mxCell id="sdSFOSKggI8gM6giwSen-330" value="" style="shape=rect;fillColor=light-dark(#326de5, #55ae70);aspect=fixed;resizable=0;labelPosition=right;verticalLabelPosition=middle;align=left;verticalAlign=middle;strokeColor=none;part=1;spacingLeft=5;fontSize=14;" vertex="1" parent="sdSFOSKggI8gM6giwSen-327">
          <mxGeometry width="4" height="48" relative="1" as="geometry" />
        </mxCell>
        <mxCell id="sdSFOSKggI8gM6giwSen-331" value="" style="aspect=fixed;sketch=0;html=1;dashed=0;whitespace=wrap;verticalLabelPosition=bottom;verticalAlign=top;fillColor=#2875E2;strokeColor=#ffffff;points=[[0.005,0.63,0],[0.1,0.2,0],[0.9,0.2,0],[0.5,0,0],[0.995,0.63,0],[0.72,0.99,0],[0.5,1,0],[0.28,0.99,0]];shape=mxgraph.kubernetes.icon2;kubernetesLabel=1;prIcon=ns" vertex="1" parent="sdSFOSKggI8gM6giwSen-327">
          <mxGeometry x="10" width="41.67" height="40" as="geometry" />
        </mxCell>
        <mxCell id="sdSFOSKggI8gM6giwSen-332" value="kubernetes-dashboard" style="aspect=fixed;sketch=0;html=1;dashed=0;whitespace=wrap;verticalLabelPosition=bottom;verticalAlign=top;fillColor=#2875E2;strokeColor=#ffffff;points=[[0.005,0.63,0],[0.1,0.2,0],[0.9,0.2,0],[0.5,0,0],[0.995,0.63,0],[0.72,0.99,0],[0.5,1,0],[0.28,0.99,0]];shape=mxgraph.kubernetes.icon2;kubernetesLabel=1;prIcon=pod" vertex="1" parent="sdSFOSKggI8gM6giwSen-327">
          <mxGeometry x="85" y="60" width="50" height="48" as="geometry" />
        </mxCell>
        <mxCell id="sdSFOSKggI8gM6giwSen-333" style="edgeStyle=orthogonalEdgeStyle;rounded=0;orthogonalLoop=1;jettySize=auto;html=1;entryX=0.005;entryY=0.63;entryDx=0;entryDy=0;entryPerimeter=0;" edge="1" parent="sdSFOSKggI8gM6giwSen-282" source="sdSFOSKggI8gM6giwSen-320" target="sdSFOSKggI8gM6giwSen-309">
          <mxGeometry relative="1" as="geometry">
            <Array as="points">
              <mxPoint x="9" y="315" />
              <mxPoint x="9" y="516" />
            </Array>
          </mxGeometry>
        </mxCell>
        <mxCell id="sdSFOSKggI8gM6giwSen-334" style="edgeStyle=orthogonalEdgeStyle;rounded=0;orthogonalLoop=1;jettySize=auto;html=1;entryX=0.5;entryY=0;entryDx=0;entryDy=0;entryPerimeter=0;" edge="1" parent="sdSFOSKggI8gM6giwSen-282" source="sdSFOSKggI8gM6giwSen-326" target="sdSFOSKggI8gM6giwSen-307">
          <mxGeometry relative="1" as="geometry">
            <Array as="points">
              <mxPoint x="220" y="408" />
              <mxPoint x="195" y="408" />
            </Array>
          </mxGeometry>
        </mxCell>
        <mxCell id="sdSFOSKggI8gM6giwSen-335" style="edgeStyle=orthogonalEdgeStyle;rounded=0;orthogonalLoop=1;jettySize=auto;html=1;entryX=0.5;entryY=0;entryDx=0;entryDy=0;entryPerimeter=0;" edge="1" parent="sdSFOSKggI8gM6giwSen-282" source="sdSFOSKggI8gM6giwSen-326" target="sdSFOSKggI8gM6giwSen-303">
          <mxGeometry relative="1" as="geometry">
            <Array as="points">
              <mxPoint x="220" y="408" />
              <mxPoint x="305" y="408" />
            </Array>
          </mxGeometry>
        </mxCell>
        <mxCell id="sdSFOSKggI8gM6giwSen-336" style="edgeStyle=orthogonalEdgeStyle;rounded=0;orthogonalLoop=1;jettySize=auto;html=1;entryX=0.5;entryY=0;entryDx=0;entryDy=0;entryPerimeter=0;" edge="1" parent="sdSFOSKggI8gM6giwSen-282" source="sdSFOSKggI8gM6giwSen-326" target="sdSFOSKggI8gM6giwSen-304">
          <mxGeometry relative="1" as="geometry">
            <Array as="points">
              <mxPoint x="220" y="408" />
              <mxPoint x="375" y="408" />
            </Array>
          </mxGeometry>
        </mxCell>
        <mxCell id="sdSFOSKggI8gM6giwSen-337" style="edgeStyle=orthogonalEdgeStyle;rounded=0;orthogonalLoop=1;jettySize=auto;html=1;" edge="1" parent="sdSFOSKggI8gM6giwSen-277" source="sdSFOSKggI8gM6giwSen-338" target="sdSFOSKggI8gM6giwSen-320">
          <mxGeometry relative="1" as="geometry" />
        </mxCell>
        <mxCell id="sdSFOSKggI8gM6giwSen-338" value="" style="aspect=fixed;sketch=0;html=1;dashed=0;whitespace=wrap;verticalLabelPosition=bottom;verticalAlign=top;fillColor=#2875E2;strokeColor=#ffffff;points=[[0.005,0.63,0],[0.1,0.2,0],[0.9,0.2,0],[0.5,0,0],[0.995,0.63,0],[0.72,0.99,0],[0.5,1,0],[0.28,0.99,0]];shape=mxgraph.kubernetes.icon2;kubernetesLabel=1;prIcon=control_plane" vertex="1" parent="sdSFOSKggI8gM6giwSen-277">
          <mxGeometry x="600" y="340" width="72.92" height="70" as="geometry" />
        </mxCell>
        <mxCell id="sdSFOSKggI8gM6giwSen-339" style="edgeStyle=orthogonalEdgeStyle;rounded=0;orthogonalLoop=1;jettySize=auto;html=1;entryX=0.027;entryY=0.5;entryDx=0;entryDy=0;entryPerimeter=0;" edge="1" parent="sdSFOSKggI8gM6giwSen-277" source="sdSFOSKggI8gM6giwSen-320" target="sdSFOSKggI8gM6giwSen-338">
          <mxGeometry relative="1" as="geometry" />
        </mxCell>
        <mxCell id="sdSFOSKggI8gM6giwSen-340" value="" style="sketch=0;outlineConnect=0;fontColor=#232F3E;gradientColor=none;fillColor=#232F3D;strokeColor=none;dashed=0;verticalLabelPosition=bottom;verticalAlign=top;align=center;html=1;fontSize=12;fontStyle=0;aspect=fixed;pointerEvents=1;shape=mxgraph.aws4.user;" vertex="1" parent="1">
          <mxGeometry x="760" y="355" width="78" height="78" as="geometry" />
        </mxCell>
        <mxCell id="sdSFOSKggI8gM6giwSen-341" style="edgeStyle=orthogonalEdgeStyle;rounded=0;orthogonalLoop=1;jettySize=auto;html=1;entryX=0.995;entryY=0.63;entryDx=0;entryDy=0;entryPerimeter=0;" edge="1" parent="1" source="sdSFOSKggI8gM6giwSen-340" target="sdSFOSKggI8gM6giwSen-338">
          <mxGeometry relative="1" as="geometry" />
        </mxCell>
      </root>
    </mxGraphModel>
  </diagram>
</mxfile>
